<?xml version="1.0" encoding="UTF-8"?>
<svg id="Capa_1" data-name="Capa 1" xmlns="http://www.w3.org/2000/svg" viewBox="0 0 618.33 618.32">
  <defs>
    <style>
      .cls-1 {
        fill: #fff;
      }

      .cls-2 {
        fill: #ee7121;
      }

      .cls-3 {
        fill: #010101;
      }
    </style>
  </defs>
  <g>
    <path class="cls-3" d="m165.19,477.88c-1.92-.82-4.19-1.64-6.66-2.46-8.94-2.74-18.6-5.75-18.6-18.97,0-11.76,8.21-18.88,21.16-18.88,5.38,0,18.33,1.37,18.33,8.21,0,3.01-2.37,5.75-6.38,5.75-1.64,0-2.92-.55-4.47-1-1.73-.64-3.74-1.37-6.93-1.37-4.47,0-8.66,1.55-8.66,6.93,0,4.01,2.28,5.38,3.83,6.11,2.37,1.19,4.56,1.92,6.57,2.46,8.94,2.83,18.69,5.93,18.69,18.88s-9.67,19.97-22.71,19.97c-6.75,0-19.51-2.37-19.51-8.75,0-2.92,2.64-5.74,6.02-5.74,1.37,0,2.83.46,4.56,1.09,2.19.73,5.11,1.82,9.03,1.82,6.29,0,9.48-2.83,9.48-7.84,0-4.1-2.1-5.47-3.74-6.2Z"/>
    <path class="cls-3" d="m231.11,503.5c-14.68,0-22.89-9.67-22.89-22.71v-37.2c0-3.46,2.83-6.02,6.47-6.02,3.37,0,6.29,2.74,6.29,6.02v37.2c0,6.57,3.19,11.12,10.12,11.12s10.03-4.65,10.03-11.12v-37.2c0-3.19,2.74-6.02,6.29-6.02,3.74,0,6.57,2.83,6.57,6.02v37.2c0,13.13-8.48,22.71-22.89,22.71Z"/>
    <path class="cls-3" d="m315.64,502.68h-24.17c-4.47,0-8.48-1.55-8.48-6.47v-51.34c0-3.19,3.01-6.47,7.02-6.47h24.71c3.46,0,6.38,2.74,6.38,5.93s-2.92,5.65-6.38,5.65h-18.97v14.68h17.23c3.19,0,6.29,2.46,6.29,5.74s-2.74,5.84-6.29,5.84h-17.23v14.86h19.88c3.37,0,6.38,2.55,6.38,5.65,0,3.28-2.92,5.93-6.38,5.93Z"/>
    <path class="cls-3" d="m380.65,502.68h-25.71c-3.65,0-6.84-2.74-6.84-6.29v-52.98c0-3.1,2.83-5.84,6.38-5.84s6.38,2.74,6.38,5.84v47.78h19.79c3.28,0,6.2,2.46,6.2,5.65s-2.74,5.84-6.2,5.84Z"/>
    <path class="cls-3" d="m423.32,499.22c-.91,2.64-3.83,4.29-6.02,4.29-3.56,0-6.57-2.37-6.57-5.84,0-.46.09-1.55.27-2.01l17.78-51.88c1.19-3.56,3.01-6.2,7.39-6.2s6.2,2.55,7.48,6.2l17.78,51.88c.18.46.27,1.55.27,2.01,0,3.47-2.83,5.84-6.57,5.84-2.37,0-5.29-1.73-6.2-4.29l-3.19-9.21h-19.42l-3.01,9.21Zm14.5-35.2c-.82-2.64-1.28-6.11-1.64-8.94-.36,2.83-.82,6.29-1.64,8.94l-4.83,15.59h12.77l-4.65-15.59Z"/>
  </g>
  <g>
    <path class="cls-3" d="m191.22,521.44h5.59c3.79,0,5.66,2.1,5.66,5.97v2.38c0,3.86-1.86,5.97-5.66,5.97h-1.79v9.83h-3.79v-24.14Zm5.59,10.86c1.21,0,1.86-.55,1.86-2.28v-2.86c0-1.72-.66-2.28-1.86-2.28h-1.79v7.42h1.79Z"/>
    <path class="cls-3" d="m211.43,521.44h5.62c3.93,0,5.62,1.83,5.62,5.55v1.48c0,2.48-.79,4.07-2.48,4.76v.07c1.9.59,2.52,2.38,2.52,5.1v4.24c0,1.17.03,2.04.41,2.93h-3.86c-.21-.62-.34-1-.34-2.97v-4.41c0-2.24-.66-2.97-2.38-2.97h-1.31v10.35h-3.79v-24.14Zm5.17,10.35c1.41,0,2.28-.62,2.28-2.55v-1.86c0-1.72-.59-2.48-1.93-2.48h-1.72v6.9h1.38Z"/>
    <path class="cls-3" d="m231.95,539.85v-12.69c0-3.86,2.04-6.07,5.76-6.07s5.76,2.21,5.76,6.07v12.69c0,3.86-2.04,6.07-5.76,6.07s-5.76-2.21-5.76-6.07Zm7.72.24v-13.17c0-1.72-.76-2.38-1.97-2.38s-1.96.66-1.96,2.38v13.17c0,1.72.76,2.38,1.96,2.38s1.97-.66,1.97-2.38Z"/>
    <path class="cls-3" d="m252.92,521.44h5.79c3.79,0,5.66,2.1,5.66,5.97v12.21c0,3.86-1.86,5.97-5.66,5.97h-5.79v-24.14Zm5.72,20.69c1.21,0,1.93-.62,1.93-2.34v-12.55c0-1.72-.72-2.35-1.93-2.35h-1.93v17.24h1.93Z"/>
    <path class="cls-3" d="m273.69,539.85v-18.42h3.79v18.69c0,1.72.72,2.34,1.93,2.34s1.93-.62,1.93-2.34v-18.69h3.66v18.42c0,3.86-1.93,6.07-5.66,6.07s-5.66-2.21-5.66-6.07Z"/>
    <path class="cls-3" d="m294.35,539.99v-12.97c0-3.72,1.93-5.93,5.59-5.93s5.59,2.21,5.59,5.93v2.55h-3.59v-2.79c0-1.59-.76-2.24-1.9-2.24s-1.9.66-1.9,2.24v13.48c0,1.59.76,2.21,1.9,2.21s1.9-.62,1.9-2.21v-3.69h3.59v3.41c0,3.72-1.93,5.93-5.59,5.93s-5.59-2.21-5.59-5.93Z"/>
    <path class="cls-3" d="m314.53,539.99v-12.97c0-3.72,1.93-5.93,5.59-5.93s5.59,2.21,5.59,5.93v2.55h-3.59v-2.79c0-1.59-.76-2.24-1.9-2.24s-1.9.66-1.9,2.24v13.48c0,1.59.76,2.21,1.9,2.21s1.9-.62,1.9-2.21v-3.69h3.59v3.41c0,3.72-1.93,5.93-5.59,5.93s-5.59-2.21-5.59-5.93Z"/>
    <path class="cls-3" d="m334.87,521.44h3.79v24.14h-3.79v-24.14Z"/>
    <path class="cls-3" d="m348.12,539.85v-12.69c0-3.86,2.04-6.07,5.76-6.07s5.76,2.21,5.76,6.07v12.69c0,3.86-2.04,6.07-5.76,6.07s-5.76-2.21-5.76-6.07Zm7.72.24v-13.17c0-1.72-.76-2.38-1.97-2.38s-1.96.66-1.96,2.38v13.17c0,1.72.76,2.38,1.96,2.38s1.97-.66,1.97-2.38Z"/>
    <path class="cls-3" d="m369.09,521.44h4.76l3.69,14.45h.07v-14.45h3.38v24.14h-3.9l-4.55-17.62h-.07v17.62h-3.38v-24.14Z"/>
    <path class="cls-3" d="m390.72,521.44h10.35v3.45h-6.55v6.38h5.21v3.45h-5.21v7.41h6.55v3.45h-10.35v-24.14Z"/>
    <path class="cls-3" d="m409.55,539.85v-1.38h3.59v1.66c0,1.72.76,2.34,1.97,2.34s1.97-.62,1.97-2.41c0-2-.76-3.28-3.24-5.45-3.17-2.79-4.21-4.76-4.21-7.52,0-3.79,1.97-6,5.66-6s5.52,2.21,5.52,6.07v1h-3.59v-1.24c0-1.72-.69-2.38-1.9-2.38s-1.9.66-1.9,2.31c0,1.76.79,3.04,3.28,5.21,3.17,2.79,4.17,4.72,4.17,7.72,0,3.93-2,6.14-5.72,6.14s-5.59-2.21-5.59-6.07Z"/>
  </g>
  <path class="cls-3" d="m186.12,129.18h-70.56l7.91-17.14c3.05-6.62,8.53-10.57,14.65-10.57h23.32c5.41,0,10.52,3.25,13.68,8.7l11.01,19.01Zm-51.54-12.17h30.43l-.43-.74c-.92-1.6-2.16-2.63-3.15-2.63h-23.32c-.97,0-2.43,1.04-3.53,3.36Z"/>
  <g>
    <path class="cls-3" d="m354.96,233.68c-2.75,5.5-4.77,11.48-5.89,17.84-2.78,15.78.37,31.23,7.85,44.06l45.58-53.51-47.55-8.39Z"/>
    <path class="cls-3" d="m409.76,197.83c-22.39,1.15-42.55,13.87-53.37,33.17l69.61,12.29-16.23-45.45Z"/>
    <path class="cls-3" d="m471.36,291.99c2.75-5.5,4.77-11.48,5.89-17.84,2.78-15.77-.37-31.2-7.84-44.03l-45.6,53.48,47.55,8.39Z"/>
    <path class="cls-3" d="m467.82,227.52c-9.48-14.67-24.8-25.5-43.35-28.77-3.92-.69-7.82-1.02-11.67-1l23.74,66.46,31.28-36.69Z"/>
    <path class="cls-3" d="m358.52,298.18c9.48,14.65,24.79,25.47,43.33,28.75,4.18.74,8.33,1.05,12.42.99l-24.46-66.46-31.28,36.73Z"/>
    <path class="cls-3" d="m417.31,327.79c22.09-1.39,41.93-14.04,52.63-33.12l-69.33-12.24,16.7,45.36Z"/>
  </g>
  <path class="cls-3" d="m497.44,415.34h-168.3c-23.88,0-43.3-19.42-43.3-43.3v-21.25c0-8.39,6.83-15.21,15.21-15.21s15.21,6.83,15.21,15.21v21.25c0,7.1,5.77,12.87,12.87,12.87h168.3c7.1,0,12.87-5.77,12.87-12.87v-207.76c0-7.1-5.77-12.87-12.87-12.87h-156.69c-5.72,0-10.81,3.84-12.38,9.34l-61.05,214.18c-6.78,23.8-28.8,40.42-53.55,40.42h-84.39c-30.7,0-55.68-24.98-55.68-55.68v-180.54c0-30.7,24.98-55.68,55.68-55.68h147c8.39,0,15.21,6.83,15.21,15.21s-6.83,15.21-15.21,15.21h-147c-13.92,0-25.25,11.33-25.25,25.25v180.54c0,13.92,11.33,25.25,25.25,25.25h84.39c11.22,0,21.21-7.54,24.29-18.33l61.05-214.18c5.27-18.51,22.4-31.43,41.64-31.43h156.69c23.88,0,43.3,19.42,43.3,43.3v207.76c0,23.88-19.42,43.3-43.3,43.3Z"/>
  <g>
    <path class="cls-2" d="m496.52,180.77c0,5.78-4.68,10.46-10.46,10.46s-10.46-4.68-10.46-10.46,4.68-10.46,10.46-10.46,10.46,4.68,10.46,10.46Z"/>
    <path class="cls-3" d="m486.06,192.01c-6.2,0-11.24-5.04-11.24-11.24s5.04-11.24,11.24-11.24,11.24,5.04,11.24,11.24-5.04,11.24-11.24,11.24Zm0-20.92c-5.33,0-9.67,4.34-9.67,9.67s4.34,9.67,9.67,9.67,9.67-4.34,9.67-9.67-4.34-9.67-9.67-9.67Z"/>
  </g>
  <g>
    <g id="fondo_2do_logo" data-name="fondo 2do logo">
      <circle class="cls-2" cx="486.06" cy="180.77" r="8.92"/>
    </g>
    <g id="S_Segundo_logo" data-name="S Segundo logo">
      <path class="cls-1" d="m478.2,181.01c-.14,0-.25-.11-.25-.25,0-4.47,3.64-8.11,8.11-8.11,3.5,0,6.59,2.23,7.7,5.54.04.13-.03.27-.16.31-.13.04-.27-.03-.31-.16-1.04-3.11-3.95-5.2-7.23-5.2-4.2,0-7.62,3.42-7.62,7.62,0,.14-.11.25-.25.25Z"/>
      <path class="cls-1" d="m486.06,188.88c-3.38,0-6.44-2.13-7.61-5.31-.05-.13.02-.27.15-.32.13-.05.27.02.32.15,1.1,2.98,3.97,4.98,7.15,4.98,4.2,0,7.62-3.42,7.62-7.62,0-.14.11-.25.25-.25s.25.11.25.25c0,4.47-3.64,8.11-8.11,8.11Z"/>
      <path class="cls-1" d="m493.93,181.01h-3.51c-.14,0-.25-.11-.25-.25s.11-.25.25-.25h3.51c.14,0,.25.11.25.25s-.11.25-.25.25Z"/>
      <path class="cls-1" d="m482.94,181.01h-4.66c-.14,0-.25-.11-.25-.25s.11-.25.25-.25h4.66c.14,0,.25.11.25.25s-.11.25-.25.25Z"/>
    </g>
    <path class="cls-1" d="m483.23,179.69c0-1.64.98-2.71,3.15-2.71,1.29,0,2.52.46,2.52,1.01,0,.27-.29.5-.67.5-.25,0-.33-.07-.53-.17l-.07-.03c-.35-.2-.74-.29-1.19-.29-1.34,0-1.77.65-1.77,1.69v2.16c0,1.04.43,1.69,1.77,1.69.46,0,.84-.09,1.19-.28l.07-.03c.2-.09.28-.17.53-.17.38,0,.67.23.67.49,0,.56-1.23,1.01-2.52,1.01-2.17,0-3.15-1.07-3.15-2.71v-2.16Z"/>
  </g>
  <path class="cls-3" d="m309.16,618.32C138.69,618.32,0,479.63,0,309.16S138.69,0,309.16,0s309.16,138.69,309.16,309.16-138.69,309.16-309.16,309.16Zm0-610.69C142.9,7.63,7.63,142.9,7.63,309.16s135.27,301.53,301.53,301.53,301.53-135.26,301.53-301.53S475.43,7.63,309.16,7.63Z"/>
</svg>