<?xml version="1.0" encoding="UTF-8"?><svg id="Capa_1" xmlns="http://www.w3.org/2000/svg" viewBox="0 0 799.2 799.28"><defs><style>.cls-1{fill:#993588;}.cls-1,.cls-2,.cls-3,.cls-4,.cls-5{stroke-width:0px;}.cls-2{fill:#08325c;}.cls-3{fill:#09345d;}.cls-4{fill:#fbfbfc;}.cls-5{fill:#f9f8fc;}</style></defs><path class="cls-3" d="m398.04,799c-6.87,0-13.75-.17-20.62.03-15.67.46-30.99-2.27-46.39-4.52-33.83-4.95-65.69-16.43-96.71-30.09-28.5-12.54-54.94-28.84-79.45-48.18-8.08-6.37-15-13.92-22.46-20.9-12.14-11.34-24.34-22.69-35.62-34.86-11.69-12.61-22.02-26.46-31.41-40.9-17.75-27.3-32.66-56.14-43.01-87.01-8.65-25.8-15.72-52.13-19.15-79.26-3.1-24.58-3.76-49.3-2.84-73.99,1.31-35.49,8.57-69.97,19.45-103.77,13.04-40.54,32.66-77.59,57.65-111.94,10.51-14.44,21.89-28.06,34.35-40.92,32.07-33.12,68.48-60.15,109.69-80.83,32.26-16.2,66.13-27.62,101.5-34.56,18.31-3.59,36.8-5.77,55.5-6.71,23.38-1.17,46.67-.63,69.86,2.04,39.84,4.58,78.04,15.41,114.69,31.73,34.17,15.21,65.66,34.74,94.12,58.98,13.38,11.4,26.76,22.86,38.33,36.21,19.55,22.57,37.6,46.2,52.4,72.23,16.53,29.07,29.5,59.61,38.44,91.85,5.49,19.8,9.15,39.95,11.58,60.36,2.23,18.81.73,37.67,1.2,56.51.76,30.09-3.55,59.55-10.96,88.62-13.32,52.27-36.41,99.88-69.01,142.8-14.59,19.2-30.43,37.49-48.51,53.43-27.07,23.87-56.01,45.23-88.53,61.46-32.62,16.28-66.64,28.33-102.32,35.72-26.97,5.59-54.24,7.56-81.75,6.49Zm380.52-398.37c-1.24-208.97-167.01-376.12-372.43-378.55C191.49,19.54,26.35,188.84,22.22,392.2c-4.34,213.44,166.93,386.34,378.27,386.05,207.03-.29,377.23-166.71,378.07-377.62Z"/><path class="cls-4" d="m778.56,400.63c-.85,210.91-171.04,377.33-378.07,377.62-211.34.29-382.61-172.61-378.27-386.05C26.35,188.84,191.49,19.54,406.13,22.08c205.42,2.43,371.19,169.58,372.43,378.55Zm-268.46,318.98c2.81,9.05,5.55,18.12,8.45,27.14,1.62,5.06,1.71,4.93,6.78,3.49,2.04-.58,2.91-1.14,2.15-3.53-4.43-13.97-8.63-28.02-13.08-41.98-.92-2.89-.46-7.34-3.24-8.24-2.46-.8-5.85,1.5-8.89,2.11-2.39.48-2.68,1.85-2.33,3.79.81,4.5,1.71,8.99,2.44,13.51,1.05,6.54,1.98,13.09,2.97,19.64-1.14-.71-1.67-1.62-2.12-2.58-3.55-7.42-6.97-14.9-10.68-22.24-1.3-2.58-1.48-6.72-4.35-7.3-2.57-.52-5.61,1.59-8.51,2.24-2.31.51-2.81,1.61-2.15,3.72,4.93,15.92,9.88,31.84,14.69,47.79.77,2.55,1.84,3.21,4.19,1.99,1.84-.95,4.95-.36,3.56-4.38-3.23-9.36-6.05-18.87-9.04-28.31.39-.02.78-.04,1.18-.06,5.26,8.54,9.02,17.84,13.42,26.81.96,1.97,2,3.06,4.26,1.93,1.91-.95,4.53-.72,3.85-4.46-1.85-10.23-3.22-20.55-4.78-30.83.41-.08.83-.17,1.24-.25Zm139.02-420.79c.1-15.74-.51-31.46-1.54-47.15-.94-14.39-2.54-28.73-4.28-43.05-2.24-18.46-4.41-36.91-8.04-55.19-1.24-6.24-3.98-9.55-10.07-10.35-.24-.03-.47-.16-.72-.22-18.79-4.23-37.91-6.32-56.95-8.96-9.56-1.33-19.38-1.53-28.15-6.41-10.25-5.72-21.02-10.31-31.99-14.44-28.49-10.73-57.99-16.9-88.3-19.04-18.06-1.28-36.07-.33-54.08,1.85-34.93,4.23-68.2,13.9-99.79,29.33-4.93,2.41-9.68,5.48-15.15,6.19-13.78,1.78-27.53,3.68-41.24,5.9-12.86,2.09-25.73,4.13-38.39,7.36-2.8.71-3.9,2.27-4.3,4.82-3.05,19.6-6.74,39.1-9.01,58.83-2.43,21.15-4.43,42.34-5.35,63.59-.78,18.21-1.04,36.43-.23,54.68.84,19.18,3.16,38.1,6.98,56.9,9.09,44.79,24.52,87.19,47.33,126.83,15.75,27.36,34.63,52.41,56.44,75.24,14.59,15.27,30.35,29.22,47.05,42.16,23.74,18.4,48.79,34.67,76.17,47.16,17.01,7.77,14.62,6.58,28.94.14,32-14.4,60.88-33.73,87.45-56.33,20.04-17.05,38.67-35.72,55.89-55.71,15.7-18.22,28.73-38.29,40.55-59.12,9.92-17.47,17.76-35.98,24.92-54.75,11.62-30.44,19.44-61.87,23.18-94.23,2.15-18.59,2.8-37.31,2.67-56.03Zm6.74,20.24c-.16,12.85-.24,25.67-1.3,38.52-1.23,15.01-2.68,29.96-4.96,44.85-6.4,41.75-17.75,81.88-37.38,119.52-16.26,31.17-34.22,61.14-58.04,87.26-20.49,22.47-42.52,43.22-67.5,60.68-9.71,6.79-19.6,13.31-29.37,20.01-.74.51-2.12.93-1.85,2.11.32,1.42,1.83,1.09,2.84,1.12,7.24.24,14.48.13,21.68-.75,16.55-2.02,32.37-6.74,47.49-13.6,43.82-19.89,80.85-48.76,111.19-86,25.43-31.22,43.51-66.44,55-105.05,7.71-25.89,11.98-52.36,12.81-79.34.5-16.45-.29-32.85-2.48-49.22-2.56-19.06-6.68-37.72-12.69-55.95-8.52-25.86-20.97-49.81-35.68-72.64-1.34-2.09-2.95-4.01-4.5-5.95-.35-.44-1.07-.93-1.52-.86-1,.17-.71,1.18-.66,1.84.23,3.1.37,6.22.85,9.29,2.59,16.61,4.09,33.33,5.31,50.08.82,11.33.85,22.71.77,34.07Zm-505.22-95.63c-7.57,9.97-14.19,20.36-20.14,31.18-21.68,39.37-32.62,81.88-36.35,126.39-1.87,22.33-.24,44.61,3.24,66.68,3.98,25.27,11.24,49.64,21.24,73.24,15.04,35.48,36.6,66.51,63.05,94.32,6.98,7.34,14.99,13.52,22.65,20.1,26.31,22.59,55.46,40.24,88.58,50.96,15.75,5.1,31.93,7.48,48.51,6.87,1.02-.04,2.57.5,2.92-.89.28-1.12-.86-2.04-1.76-2.68-2.42-1.75-4.85-3.51-7.41-5.05-21.61-13.1-41.49-28.51-60.12-45.52-13.74-12.54-26.3-26.23-38.24-40.54-19.86-23.8-36.29-49.74-49.88-77.53-11.8-24.14-20.62-49.39-27.65-75.29-8.99-33.15-13.44-67-14.98-101.22-.51-11.33-.57-22.71-.25-34.09.3-10.48.79-20.93,1.43-31.39.75-12.18,1.93-24.31,3.35-36.42.74-6.34,2.35-12.59,1.8-19.11Zm595.96,174.51c-.33-12.08-.96-25.12-2.39-38.16-2.32-21.21-6.72-41.93-12.73-62.37-10.92-37.13-28.36-71.01-50.6-102.54-1.29-1.84-2.66-3.65-4.66-4.79-1.56-.89-3.14-.88-4.52.32-1.23,1.07-1.54,2.39-1.08,4.05.51,1.89,1.65,3.35,2.71,4.87,8.82,12.57,17.06,25.49,24.46,38.96,24.91,45.38,37.75,94.12,39.93,145.67,1.18,27.95-1.26,55.7-6.91,83.15-6.29,30.59-15.95,59.95-31.17,87.35-.48.86-.98,1.81-1.11,2.76-.26,1.96-.64,4.23,1.72,5.2,2.35.96,4.49.14,5.89-1.96.96-1.44,1.56-3.12,2.36-4.67,25.46-49.17,37.62-101.58,38.11-157.83Zm-683.99-2.1c-.46-8.39.43-19.71,1.58-30.98,1.86-18.19,5.11-36.15,9.73-53.86,6.26-24,15.12-46.96,26.49-68.99,7.75-15,16.78-29.18,26.78-42.75,1.27-1.73,2.36-3.54,2.57-5.73.15-1.58-.23-2.95-1.68-3.89-1.43-.91-2.67-.28-3.84.44-2.06,1.28-3.4,3.28-4.77,5.21-14.32,20.21-26.81,41.46-36.76,64.17-18.74,42.79-27.78,87.67-28.75,134.24-.31,14.58.98,29.11,2.5,43.63,1.91,18.23,5.61,36.09,10.24,53.79,5.58,21.33,14.27,41.45,23.63,61.32,1.33,2.82,2.63,5.66,4.15,8.38,1.02,1.82,2.79,2.49,4.83,1.76,1.97-.7,2.39-2.28,2.32-4.21-.08-2.34-1.02-4.35-2.08-6.34-5.64-10.58-10.62-21.49-14.82-32.7-14.56-38.82-22.37-78.93-22.12-123.47Zm378.88,344.7c4.86-4.74,5.77-14.48,2.25-21.19-1.76-3.36-4.48-5.21-8.34-5.36-3.87-.15-7.68.2-11.52.61-5.8.62-5.82.43-5.47,6.28.02.37.05.75.09,1.12,1.42,14.08,2.91,28.15,4.21,42.24.62,6.7.44,6.66,6.84,6.03,2.05-.2,2.83-1.01,2.59-3.13-.64-5.68-1.2-11.37-1.64-17.07-.1-1.27-.92-3.12.49-3.81,1.64-.79,3.68-.71,5.41.25,1.28.71,1.91,1.91,2.07,3.37.63,5.42,1.24,10.85,1.91,16.26.17,1.38.47,2.9,2.33,2.81,2.43-.11,4.9-.11,7.2-1.1.11-.05.01-.68-.07-1.03-1.32-5.34-1.14-10.86-2-16.23-.64-3.95-1.31-8.29-6.36-10.07Zm124.81-66.35c-.19,2.48.61,4.74,1.88,6.75,6.01,9.47,11.66,19.21,18.34,28.2,4.88,6.56,10.47,7.37,17.67,2.69,6-3.9,8.2-10.09,4.75-16.39-5.75-10.51-12.41-20.47-19.63-30.02-3.24-4.29-8.55-5.33-13.51-3.41-5.63,2.18-9.5,7.13-9.5,12.2Zm-345.82,43.89c-.11,2.37.65,4.44,2.11,6.25,7.24,8.96,17.99,8.07,23.45-2.03,6.21-11.51,12.09-23.21,18.48-34.62,2.71-4.83-1.9-4.24-3.55-5.79-2.3-2.16-3.19-.35-4.21,1.6-6.05,11.6-12.16,23.18-18.3,34.74-1.92,3.62-4.34,4.69-6.84,3.12-3.1-1.95-2.43-4.37-.97-7.09,6.18-11.53,12.16-23.17,18.45-34.63,1.55-2.83.8-4.02-1.79-4.96-2.13-.78-4.06-3.64-6.17.57-5.15,10.23-10.79,20.2-16.1,30.35-2.06,3.94-4.43,7.83-4.57,12.5Zm180.91-2.86c-.62,0-1.26.09-1.87-.02-3.4-.59-4.71.71-5.24,4.24-2.39,15.69-5.15,31.32-7.72,46.98-.84,5.16-.57,5.3,4.76,5.07,2.12-.09,3.27-.83,3.4-3.03.12-1.86.38-3.71.6-5.56.12-.98.05-2.28,1.3-2.4,2.84-.28,5.9-.85,8.49.25,1.59.67,1.18,3.34,1.43,5.1.86,5.86.74,5.76,6.57,5.66,2.39-.04,3.14-.92,2.78-3.12-2.56-15.8-5.09-31.6-7.66-47.4-.94-5.77-.98-5.77-6.85-5.77Zm-64.26-3.02c.97-3-.9-4.56-4.59-4.86-1.35-.11-2.71-.47-3.98-.94-2.29-.85-3.44-.4-4.32,2.14-1.75,5.05-4,9.92-6.02,14.88-4.36,10.73-8.69,21.47-13.04,32.21-.46,1.14-1.22,2.26.4,3.19,3.82,2.19,6.9,1.09,8.37-3.03.33-.94.62-1.9,1.03-2.81.44-.97.43-2.74,1.69-2.62,2.81.28,5.77.63,8.29,1.78,2.05.93.12,3.12.14,4.74.02,1.62-.06,3.24-.1,4.86-.02.75-.02,1.3.88,1.75,5.67,2.81,7.95,1.56,8.04-4.56.01-.75.04-1.5.09-2.24,1.01-14.52,2.03-29.05,3.12-44.49Zm118.93,30.92c0,7.23.05,14.46-.03,21.69-.03,2.09.79,2.57,2.7,2.27,5.34-.82,5.35-.78,5.33-6.27,0-1.37-.06-2.75-.06-4.12,0-.72-.2-1.69.72-1.9,2.64-.58,5.37-1.54,7.97-1.31,1.92.17,1.87,2.96,2.51,4.63,2.08,5.38,1.97,5.17,7.76,4.2,2.71-.46,2.61-1.45,1.88-3.4-5.23-14.12-10.38-28.26-15.64-42.37-2.96-7.96-3-7.78-11.38-6.43-2.66.43-3.06,1.48-3.13,3.86-.29,9.73.8,19.43,1.36,29.15Zm-71.98-16c-.21-1.7.25-3.68-.41-5.67-1.87-5.7-7.38-9.15-13.77-8.44-6.96.77-10.77,4.55-11.51,11.53-1.08,10.25-2.13,20.51-3.19,30.76-.78,7.56,3.39,13.7,10.06,14.86,7.78,1.35,13.75-1.94,15.44-8.86.79-3.24.9-6.64,1.3-9.97.12-1.01-.24-1.52-1.35-1.8-6.44-1.58-6.98-1.24-7.73,5.39-.07.62-.14,1.24-.19,1.86-.31,4.04-1.64,5.59-4.67,5.3-3.68-.35-3.79-3.04-3.6-5.79.41-5.84.61-11.71,1.44-17.49.69-4.8.38-9.69,1.64-14.42.58-2.2,1.74-3.07,3.96-3.08,2.22,0,3.49.98,4.16,3,.58,1.76.13,3.4-.22,5.13-.25,1.25-.9,3.3.51,3.72,2.19.65,4.8.94,6.97.38,2.07-.53.89-3.03,1.15-4.66.08-.49.01-1,.01-1.77Zm-191.7-26.38c.07,8.27,10.05,15.41,17.16,12.58,6.26-2.49,10.68-9.26,11.04-16.02.33-6.24-2.2-11.96-2.73-18.03-.3-3.48.53-6.38,3.16-8.75,1.42-1.27,2.94-1.22,4.51-.47,1.69.8,2.19,2.22,2,4.04-.15,1.44-.91,2.57-1.57,3.76-.4.71-1.1,1.23-.28,2.27,3.27,4.17,6.51,4.03,8.88-.51.06-.11.13-.21.18-.33,3.14-6.02,2.1-10.25-3.78-15.37-4.4-3.83-10.72-4.35-15.13-.74-4.26,3.49-6.97,7.98-7.12,13.8-.14,5.7,1.86,10.98,2.78,16.46.67,3.97-.7,7.33-3.12,10.36-1.27,1.59-2.98,1.78-4.72.98-1.85-.85-2.92-2.26-2.61-4.46.18-1.28.55-2.51,1.39-3.42,1.82-1.97,1.21-3.21-.91-4.32-.99-.51-1.87-1.24-2.79-1.89-1-.71-1.87-.62-2.52.46-1.86,3.08-4.23,5.96-3.83,9.6Zm366.74,34.64c.14-4.3-3.24-6.54-7.28-4.97-3.09,1.2-6.42,4.39-9.12,3.28-2.71-1.11-3.02-5.67-4.41-8.7-2.75-6-2.67-5.95,3.22-8.55,6.22-2.74,5.62-.97,2.86-7.78-.58-1.42-1.32-1.8-2.88-1.22-3.06,1.12-6.34,4.69-9.02,2.95-2.37-1.54-2.85-5.87-4.38-8.86-1.2-2.35-1.12-3.81,1.7-4.76,2.71-.91,5.2-2.46,7.92-3.32,2.66-.84,2.98-2.19,1.69-4.33-1.11-1.84-.87-5.33-4.88-3.42-5.62,2.67-11.37,5.08-17.12,7.46-1.88.78-2.14,1.65-1.25,3.4,1.19,2.33,2.14,4.78,3.16,7.19,5.53,12.95,11.05,25.91,16.59,38.85.6,1.4.77,3.33,3.29,2.22,6.16-2.71,12.38-5.26,18.57-7.89.68-.29,1.45-.54,1.34-1.53Zm-283.31-37.67c.65.27,1.34.54,2.03.84,2.86,1.22,5.74,2.4,8.57,3.68,2.73,1.24,3.32-.85,3.86-2.57.52-1.65,2.58-3.71-.51-5.01-6.08-2.56-12.21-5.02-18.28-7.59-1.48-.63-2.18-.27-2.75,1.2-1.44,3.72-2.99,7.4-4.54,11.08-5.02,11.93-10.08,23.84-15.06,35.79-.46,1.1-2.13,2.44.48,3.48,6.25,2.49,12.39,5.23,18.58,7.86.91.39,1.62.79,2.49-.45,3.14-4.46,2.71-6.35-2.18-8.39-.34-.14-.7-.25-1.05-.39-8.14-3.24-8.19-3.27-4.63-11.32,1.09-2.47,1.19-6.39,3.52-7.02,2.14-.57,5.2,1.31,7.54,2.66,4.23,2.46,3.98-1.45,5.19-3.31,1.61-2.47.14-3.21-2-4.09-7.97-3.27-7.94-3.34-4.72-11.14.52-1.27,1.04-2.54,1.56-3.81.34-.84.74-1.61,1.9-1.5Zm270.7-18.11c-1.73,1.06-4.21,2-5.81,3.75-1.03,1.13.83,2.84,1.53,4.23.78,1.56,1.65,3.08,2.47,4.62,6.75,12.65,13.53,25.29,20.2,37.99,1.05,2,1.96,2.36,3.95,1.23,5.11-2.87,10.28-5.64,15.52-8.25,2.21-1.1,2.47-2.14,1.22-4.23-2.84-4.73-1.36-4.91-6.69-2.2-1.44.74-2.84,1.56-4.27,2.33q-4.22,2.29-6.54-2.08c-6.19-11.67-12.37-23.35-18.59-35.01-.55-1.03-.81-2.48-2.99-2.39Zm-248.18,76.93c2.73-.38,2.03-2.84,2.84-4.31,1.34-2.45.4-3.55-2.15-4.11-2.43-.53-4.74-1.6-7.17-2.12-2.72-.57-3.3-1.64-2.38-4.39,4.33-13,8.44-26.08,12.63-39.12.34-1.05,1.24-2.36.32-3.14-1.84-1.55-4.3-1.98-6.62-2.22-2.11-.22-1.98,1.98-2.4,3.25-4.45,13.47-8.74,27-13.23,40.46-3,9-3.11,8.96,6.14,11.79.83.26,1.68.47,2.51.75,3.19,1.06,6.38,2.13,9.51,3.17Zm-40.71-691.31c-4.96-.17-8.05,2.24-11.54,3.44-2.21.76-2.41,1.8-1.5,3.89,3.73,8.55,7.3,17.17,10.86,25.8,3.03,7.37,2.98,7.39,10.44,4.27,1.15-.48,2.32-.91,3.43-1.46,2.28-1.13,3.56-3.03,4.1-5.48.86-3.93-2.93-12.59-6.66-14.1-2.22-.9-1.95-1.7-1.41-3.55,1.55-5.28-3.69-12.77-7.72-12.8Zm286.03,5.66c.47-5.08-1.65-7.12-4.47-8.5-2.34-1.14-4.92-1.81-7.28-2.93-2.01-.96-2.98-.73-3.81,1.54-3.9,10.63-7.88,21.23-12.05,31.76-1.1,2.79.84,2.81,2.32,3.49,1.64.75,2.88,1.02,3.64-1.32,1.17-3.66,2.68-7.21,4.15-10.77.37-.89.42-2.53,2.11-1.95,1.27.43,2.67.92,2.85,2.61.14,1.26-.02,2.46-.49,3.66-.97,2.43-1.72,4.94-2.8,7.31-1.32,2.91-.3,4.11,2.55,5.16,3.38,1.25,2.59-1.49,3.29-2.84.34-.66.52-1.4.75-2.11,1.44-4.4,4.36-8.54,2.27-13.55-.39-.93.56-1.27,1.17-1.63,4.4-2.57,5.08-7.05,5.79-9.92Zm-109.07,3.43c-1.43,2.7,1.07,2.83,3.19,3.21,1.47.26,2.94.46,4.42.67,7.36,1.06,11.24-2.22,11.97-9.69.61-6.15,1.5-12.29,2.48-18.39.84-5.21-2.13-9.8-7.35-10.7-2.2-.38-4.57-.09-6.64-.77-3.04-1-3.75.52-4.05,2.9-1.33,10.71-2.63,21.42-4.02,32.77Zm-127.43-26.69c-7.21,0-11.32,5.07-9.66,12.03.89,3.73,1.91,7.42,2.92,11.12,1.01,3.71,1.8,7.51,3.16,11.09,1.73,4.57,5.82,6.34,10.67,5.13,4.7-1.18,8.04-5.15,7.05-9.53-1.88-8.34-3.41-16.82-6.6-24.81-1.28-3.21-3.75-5.26-7.54-5.02Zm275.29,75.68c.01,3.97,2.55,7.07,7.06,8.85,3.67,1.44,6.71.22,9-2.56,5.01-6.07,8.9-12.92,12.92-19.65,3.23-5.4,1.98-10.16-2.73-12.94-5.25-3.09-9.39-2.15-13.09,3.3-3.84,5.66-7.5,11.44-11.12,17.25-1.1,1.77-2.32,3.6-2.03,5.74Zm-85.7-41.83c-.06,6.32,2.34,9.37,7.12,10.54,4.7,1.16,8.28-.28,10.14-4.72,3.26-7.79,5.75-15.88,7.69-24.09,1.22-5.15-1.8-8.74-7.55-10.14-4.95-1.21-8.39.71-10.13,5.69-1.47,4.23-3.03,8.43-4.31,12.71-1.14,3.79-2.71,7.48-2.95,10.01Zm-253.71,31.25c6.7-.06,11.58-5.73,9.11-11.57-3.97-9.4-8.78-18.44-13.24-27.63-.46-.95-1.06-1.08-2.11-.77-3.53,1.05-3.99,1.98-2.36,5.28,3.86,7.83,7.73,15.65,11.54,23.5.69,1.43,1.58,3.05-.19,4.38-2.7,2.02-4.05.28-5.17-1.96-4.07-8.12-8.19-16.22-12.15-24.39-.93-1.92-1.98-1.94-3.51-1.04-1.4.83-3.56,1.11-2.24,3.7,4.55,8.87,8.42,18.08,13.56,26.65,1.54,2.57,3.79,3.85,6.77,3.84Zm112.15-41.36c0,1.83,0,2.7,0,3.57.03,3.33,1.75,4.32,4.64,2.75,1.84-1,.97-2.67.96-4-.01-2.21.1-3.94,2.95-4.05,2.34-.09,4.61-.4,4.84,2.94.06.85.36,1.71.67,2.52,1.18,3.08,3.7,1.14,5.47,1.14,2.42,0,.71-1.97.5-2.77-2.62-10.09-5.4-20.14-8.12-30.21-1.5-5.53-2.52-6.06-8.23-4.54-1.19.32-1.62.7-1.69,1.91-.65,10.56-1.36,21.12-1.98,30.73Zm-13.16,1.8c.06-1.25-.25-2.71-.45-4.19-.28-2.1-.42-3.6-3.32-3.03-2.5.49-3.56,1.28-2.48,3.84.23.55.12,1.24.29,1.84.6,2.14.61,4.13-2.01,4.77-2.73.67-3.38-1.29-3.79-3.42-.38-1.93-.95-3.83-1.29-5.77-.88-5.13-1.7-10.28-2.49-15.43-.25-1.65.24-3.17,2.05-3.43,1.83-.26,3.04.84,3.49,2.67.15.6.48,1.21.45,1.81-.21,3.78,2.33,2.42,4.21,2.31,2.85-.16,1.78-2.1,1.55-3.56-.17-1.1-.52-2.18-.89-3.24-1.57-4.41-4.94-6.33-9.73-5.58-4.95.77-7.9,3.75-7.54,8.56.65,8.67,2.67,17.14,4.84,25.53,1.15,4.43,5.16,6.47,9.25,5.64,5.78-1.16,7.86-3.57,7.86-9.32Zm-123.85,49.76c-.49-3.11-2.66-6.03-4.63-9.03-.4-.61-1.08-.35-1.69-.11-3.36,1.31-3.78,2.52-1.93,5.62.57.96,1.21,1.91,1.63,2.94.55,1.38.43,2.69-.98,3.61-1.43.93-2.69.46-3.69-.6-.85-.89-1.49-1.99-2.16-3.04-3.43-5.35-6.84-10.7-10.24-16.07-.95-1.51-1.3-3.09.47-4.25,1.67-1.1,3.1-.41,4.26.97.48.57.96,1.17,1.28,1.83,1.32,2.76,2.91,1.26,4.53.38,2.15-1.17,1.49-2.47.34-3.9-.55-.68-1.01-1.42-1.54-2.12-3.08-4.07-7.66-4.75-12.23-1.81-4.21,2.7-5.51,6.98-2.92,11.3,4.1,6.84,8.43,13.54,12.83,20.19,2.07,3.13,5.97,4.4,9.12,3.41,4.46-1.4,7.47-4.88,7.54-9.33Zm357.46-15.61c.99-2.33,1.57-3.64,2.1-4.97,2.25-5.54,4.46-11.1,6.72-16.64,1.36-3.32-1.87-3.2-3.29-4.31-1.46-1.14-1.83.3-2.23,1.36-4.03,10.72-7.96,21.48-12.15,32.14-1.62,4.13,2.09,3.96,3.8,5.44,2.1,1.83,3.28.32,4.5-1.25,6.64-8.56,13.35-17.06,19.88-25.7.72-.95,3.7-2.09.72-3.97-1.95-1.23-3.54-2.52-5.43.51-2.56,4.11-5.61,7.94-8.65,11.72-1.47,1.83-2.56,4.16-5.97,5.63Zm-274.89-22.88c.02-3.88-1.19-6.95-3.65-9.48-2.23-2.3-5.11-3.5-7.93-4.82-3.08-1.44-6.1-2.99-6.97-6.75-.41-1.76.38-2.95,1.87-3.64,1.54-.71,2.63.13,3.39,1.44.31.53.49,1.13.75,1.7,1,2.2,2.46.87,3.69.39.97-.37,2.6-.11,2.1-2.23-1.3-5.46-6.51-8.4-11.75-6.64-7.81,2.62-8.02,9.99-3.53,15.93,2.57,3.4,6.52,4.88,10.2,6.7,3.02,1.49,5.48,3.5,5.63,7.26.05,1.35-.28,2.45-1.76,2.91-1.52.47-2.72.09-3.52-1.27-.44-.74-.68-1.6-1.11-2.36-1.12-1.99-2.56-.52-3.89-.33-1.31.19-1.97.69-1.76,2.21.59,4.27,5,8.11,9.13,7.82,5.47-.39,9.1-3.91,9.13-8.83Zm162.6-10.87c.45-2.44,1.09-4.86,1.29-7.33.17-2.11,1.05-2.58,2.9-2.1,1.08.28,2.29.22,3.26.69,2.31,1.12,2.8-.43,3.31-2.03,1.1-3.46-1.62-3.72-3.68-3.86-3.45-.24-4.29-1.6-3.45-4.9,1.44-5.7,1.29-5.74,7.37-4.58.49.09,1.07-.06,1.48.15,2.47,1.29,2.97-.43,3.44-2.2.51-1.91-.15-3.12-2.17-3.45-4.04-.68-8.12-1.17-12.11-2.1-2.17-.5-2.35.72-2.6,2.07-2.06,11.11-4.06,22.23-6.13,33.33-.34,1.8-.08,2.69,2.03,3,3.67.53,7.29,1.45,10.93,2.22,1.69.36,3.25.63,3.66-1.78.37-2.17.3-3.86-2.51-4.1-1.73-.15-3.42-.64-5.15-.83-1.41-.16-2.07-.72-1.87-2.2Zm36.53-16.88c0-5.38-1.18-6.96-6.42-8.5-2.03-.6-4.11-1.08-6.1-1.8-2.18-.79-3.25-.63-3.86,2.09-2.47,10.92-5.15,21.79-7.99,32.61-.61,2.31.04,2.79,2.02,3.1,1.88.29,3.65,1.07,4.17-1.86.52-2.94,1.53-5.78,2.04-8.72.53-3.05,1.69-4.2,4.99-3.23,3.66,1.08,7-.63,8.73-3.98,1.56-3.02,2.33-6.29,2.41-9.7Zm-84.78-7.22c-.24-.05-.48-.1-.72-.14-.91-3.6-1.9-7.18-2.72-10.8-.86-3.79-3.89-2.28-5.78-2.03-2.65.35-.63,2.48-.33,3.47,3.31,10.82,7.16,21.53,4.78,33.18-.45,2.19.74,2.79,2.77,2.67,1.89-.11,3.41.29,3.62-2.71.42-6.02-.33-12.19,2.02-18.04,2.36-5.85,4.48-11.79,6.73-17.75-6.01-.75-5.99-.75-7.72,4.51-.84,2.56-1.77,5.09-2.65,7.64Zm137.76,26.01c-.36.88-.72,1.81-1.13,2.72-3.6,7.92-7.12,15.87-10.89,23.72-1.1,2.3-.61,3.24,1.58,4.21,2.09.93,3.25.97,4.28-1.44,3.44-8,7.25-15.85,10.62-23.89,1.16-2.77,2.16-4.33,5.2-2.36,1.62,1.05,2.8.98,3.62-1.22.73-1.97.84-3.09-1.45-4.01-4.04-1.62-7.95-3.55-11.9-5.4-1.48-.69-2.81-1.76-3.83.72-.86,2.1-1.32,3.69,1.48,4.58,1.03.33,2.59.53,2.42,2.37Zm-344.13,12.02c-2.06-.01-4.6,2.99-3.63,4.7,5.59,9.87,11.27,19.7,16.81,29.61,1.15,2.06,2.15,2.22,4.07.95,2.91-1.92,5.93-3.72,9.07-5.22,2.44-1.16,2.02-2.25,1.03-4.27-1.28-2.62-2.57-1.53-4.1-.62-1.06.64-2.2,1.18-3.19,1.91-2.09,1.54-3.18,1.16-4.47-1.25-4.3-8.02-8.91-15.88-13.46-23.77-.44-.77-.44-2.08-2.11-2.03Zm176.64-11.73c1.87,0,3.74-.06,5.61.01,3.12.12,3.2-1.79,3.13-4.16-.08-2.95-1.95-1.82-3.4-1.73-1.24.07-2.5.09-3.73.27-1.99.29-2.98-.3-3.01-2.51-.04-2.98-.52-5.95-.54-8.93-.05-6.47-1.02-12.89-.69-19.38.2-3.89-2.88-1.97-4.57-2.3-2.15-.43-1.82.91-1.74,2.48.52,9.7.85,19.4,1.27,29.11.32,7.16.34,7.16,7.66,7.15Zm190.48,3.94c-.43-1.97-2.38-1.97-3.65-2.78-1.7-1.08-2.17.55-2.68,1.56-5.2,10.18-10.3,20.41-15.55,30.56-1.58,3.07,1.33,2.75,2.5,3.73,1.98,1.66,2.7.17,3.49-1.4,4.96-9.88,9.97-19.73,14.95-29.6.33-.66.62-1.35.94-2.07Zm-223.25-2.59c-.62-4.03-1.27-8.05-1.86-12.08-1.1-7.48-2.12-14.96-3.31-22.43-.2-1.22-.44-3.63-2.58-2.31-1.2.74-4.49-1.25-3.64,2.88,1.32,6.43,1.86,13.01,2.79,19.52.7,4.91,1.57,9.8,2.23,14.71.28,2.14,1.45,2.55,3.08,1.81,1.21-.55,3.69.77,3.29-2.1Z"/><path class="cls-3" d="m649.12,298.82c.13,18.72-.53,37.44-2.68,56.03-3.74,32.36-11.56,63.79-23.18,94.23-7.16,18.76-15,37.28-24.92,54.75-11.82,20.83-24.86,40.9-40.55,59.12-17.22,19.99-35.85,38.67-55.89,55.71-26.57,22.6-55.44,41.93-87.45,56.33-14.31,6.44-11.92,7.63-28.94-.14-27.37-12.5-52.42-28.76-76.17-47.16-16.7-12.94-32.46-26.89-47.05-42.16-21.81-22.83-40.69-47.88-56.44-75.24-22.82-39.64-38.25-82.04-47.33-126.83-3.81-18.8-6.13-37.71-6.98-56.9-.8-18.25-.55-36.47.23-54.68.92-21.26,2.92-42.44,5.35-63.59,2.26-19.73,5.95-39.23,9.01-58.83.4-2.56,1.5-4.11,4.3-4.82,12.65-3.22,25.52-5.27,38.39-7.36,13.71-2.23,27.47-4.12,41.24-5.9,5.47-.71,10.22-3.78,15.15-6.19,31.59-15.44,64.86-25.1,99.79-29.33,18.01-2.18,36.03-3.13,54.08-1.85,30.31,2.14,59.8,8.31,88.3,19.04,10.98,4.13,21.74,8.72,31.99,14.44,8.76,4.89,18.59,5.09,28.15,6.41,19.04,2.64,38.16,4.73,56.95,8.96.24.05.47.18.72.22,6.09.8,8.83,4.11,10.07,10.35,3.62,18.28,5.79,36.73,8.04,55.19,1.74,14.32,3.33,28.66,4.28,43.05,1.03,15.69,1.64,31.41,1.54,47.14Zm-249.44-158.51c-33.81.96-65.86,1.16-97.82,4.33-15.84,1.57-31.69,3-47.49,4.98-22.8,2.86-45.42,6.78-67.94,11.27-2.77.55-4.23,1.99-4.71,4.93-1.78,10.89-4.01,21.71-5.65,32.62-4.02,26.84-7.13,53.81-7.84,80.96-.91,34.94,0,69.81,6.85,104.26,10.17,51.06,30.31,97.8,60.05,140.55,20.45,29.39,44.29,55.56,71.79,78.42,13.24,11.01,27.19,21.09,41.71,30.35,14.64,9.34,29.93,17.49,45.63,24.92,3.57,1.69,6.96,1.94,10.72.22,8.41-3.84,16.79-7.76,24.84-12.26,41.65-23.25,78.49-52.47,109.9-88.5,20.86-23.92,38.52-49.96,52.81-78.25,26.81-53.09,39.54-109.59,40.04-168.92.18-21.71-1.15-43.37-3-65.01-1.09-12.77-2.72-25.46-4.21-38.18-1.67-14.32-4.57-28.42-7.11-42.59-.34-1.88-.93-2.62-2.95-3.02-25.7-5.03-51.46-9.6-77.51-12.52-24.86-2.78-49.76-5.26-74.73-6.59-21.69-1.15-43.43-1.4-63.38-1.99Z"/><path class="cls-2" d="m655.86,319.06c.08-11.37.06-22.74-.77-34.07-1.22-16.75-2.72-33.47-5.31-50.08-.48-3.07-.62-6.19-.85-9.29-.05-.66-.33-1.67.66-1.84.46-.08,1.17.42,1.52.86,1.56,1.94,3.16,3.86,4.5,5.95,14.7,22.83,27.16,46.78,35.68,72.64,6.01,18.24,10.13,36.89,12.69,55.95,2.2,16.37,2.99,32.77,2.48,49.22-.83,26.98-5.1,53.44-12.81,79.34-11.49,38.6-29.57,73.83-55,105.05-30.34,37.25-67.37,66.11-111.19,86-15.12,6.86-30.94,11.58-47.49,13.6-7.2.88-14.44,1-21.68.75-1-.03-2.51.3-2.84-1.12-.27-1.18,1.11-1.6,1.85-2.11,9.76-6.71,19.66-13.23,29.37-20.01,24.98-17.46,47.01-38.21,67.5-60.68,23.82-26.12,41.78-56.09,58.04-87.26,19.63-37.63,30.98-77.77,37.38-119.52,2.28-14.89,3.73-29.84,4.96-44.85,1.06-12.84,1.13-25.67,1.3-38.52Z"/><path class="cls-2" d="m150.64,223.43c.56,6.52-1.05,12.77-1.8,19.11-1.42,12.11-2.6,24.24-3.35,36.42-.64,10.46-1.13,20.91-1.43,31.39-.33,11.38-.26,22.76.25,34.09,1.54,34.23,5.99,68.08,14.98,101.22,7.03,25.9,15.84,51.15,27.65,75.29,13.59,27.79,30.02,53.73,49.88,77.53,11.94,14.3,24.5,27.99,38.24,40.54,18.62,17.01,38.51,32.42,60.12,45.52,2.55,1.55,4.98,3.31,7.41,5.05.9.65,2.03,1.57,1.76,2.68-.35,1.39-1.9.85-2.92.89-16.58.62-32.76-1.77-48.51-6.87-33.12-10.71-62.27-28.37-88.58-50.96-7.66-6.58-15.66-12.75-22.65-20.1-26.45-27.81-48.01-58.84-63.05-94.32-10.01-23.6-17.26-47.97-21.24-73.24-3.48-22.07-5.11-44.35-3.24-66.68,3.73-44.51,14.67-87.01,36.35-126.39,5.95-10.81,12.57-21.21,20.14-31.18Z"/><path class="cls-1" d="m62.61,395.84c-.24,44.54,7.57,84.65,22.12,123.47,4.2,11.2,9.19,22.11,14.82,32.7,1.06,1.98,2,4,2.08,6.34.07,1.93-.35,3.52-2.32,4.21-2.05.72-3.81.06-4.83-1.76-1.52-2.72-2.82-5.56-4.15-8.38-9.35-19.87-18.05-39.99-23.63-61.32-4.63-17.7-8.33-35.55-10.24-53.79-1.52-14.52-2.81-29.05-2.5-43.63.98-46.57,10.02-91.45,28.75-134.24,9.95-22.72,22.44-43.97,36.76-64.17,1.37-1.93,2.7-3.93,4.77-5.21,1.17-.72,2.41-1.35,3.84-.44,1.46.93,1.83,2.3,1.68,3.89-.21,2.19-1.29,4.01-2.57,5.73-10.01,13.58-19.04,27.75-26.78,42.75-11.38,22.03-20.23,45-26.49,68.99-4.62,17.71-7.87,35.67-9.73,53.86-1.15,11.27-2.05,22.59-1.58,30.98Z"/><path class="cls-3" d="m490.93,726.47c2.99,9.45,5.81,18.95,9.04,28.31,1.39,4.02-1.73,3.43-3.56,4.38-2.35,1.21-3.42.55-4.19-1.99-4.81-15.96-9.76-31.87-14.69-47.79-.65-2.11-.16-3.21,2.15-3.72,2.9-.64,5.94-2.76,8.51-2.24,2.87.58,3.05,4.72,4.35,7.3,3.7,7.34,7.13,14.82,10.68,22.24.45.95.98,1.87,2.12,2.58-.98-6.55-1.91-13.1-2.97-19.64-.73-4.52-1.63-9.01-2.44-13.51-.35-1.94-.06-3.31,2.33-3.79,3.04-.61,6.43-2.92,8.89-2.11,2.78.91,2.31,5.36,3.24,8.24,4.45,13.96,8.65,28.01,13.08,41.98.76,2.4-.11,2.96-2.15,3.53-5.07,1.44-5.16,1.57-6.78-3.49-2.89-9.02-5.64-18.09-8.44-27.14-1.2-1.54.18-4.11-2.6-5.89.81,2.49.05,4.47,1.36,6.15,1.56,10.28,2.94,20.6,4.78,30.83.68,3.74-1.95,3.51-3.85,4.46-2.26,1.13-3.3.04-4.26-1.93-4.4-8.97-8.16-18.27-13.42-26.81.3-2.38-1.34-3.85-2.67-6.12-.05,2.62.75,4.38,1.49,6.17Z"/><path class="cls-3" d="m441.49,740.53c5.05,1.77,5.73,6.11,6.36,10.07.86,5.37.68,10.9,2,16.23.08.34.18.98.07,1.03-2.3.99-4.77.99-7.2,1.1-1.86.09-2.16-1.43-2.33-2.81-.67-5.42-1.29-10.84-1.91-16.26-.17-1.45-.79-2.66-2.07-3.37-1.74-.96-3.77-1.04-5.41-.25-1.42.68-.59,2.54-.49,3.81.44,5.7.99,11.39,1.64,17.07.24,2.12-.54,2.92-2.59,3.13-6.4.63-6.23.66-6.84-6.03-1.3-14.09-2.8-28.16-4.21-42.24-.04-.37-.07-.75-.09-1.12-.36-5.85-.34-5.66,5.47-6.28,3.84-.41,7.66-.77,11.52-.61,3.86.15,6.57,2,8.34,5.36,3.52,6.71,2.61,16.45-2.25,21.19Zm-4.89-9.59c.11-2.25.06-4.48-.78-6.6-1.25-3.15-4.01-2.26-6.4-2.35-1.68-.06-1.9,1.18-1.56,2.26,1.07,3.37-.04,6.97,1.19,10.28.41,1.1-.78,3.04,1.47,3.21,2.02.16,4.07-.04,5.43-1.75,1.18-1.48.59-3.34.63-5.05Z"/><path class="cls-3" d="m566.29,674.18c0-5.06,3.87-10.02,9.5-12.2,4.95-1.91,10.26-.88,13.51,3.41,7.22,9.55,13.89,19.52,19.63,30.02,3.45,6.31,1.26,12.5-4.75,16.39-7.2,4.67-12.79,3.87-17.67-2.69-6.68-8.98-12.33-18.73-18.34-28.2-1.28-2.01-2.08-4.27-1.89-6.75Zm30.95,31.63c3.7-.1,5.68-3.6,3.57-6.96-5.69-9.07-11.56-18.02-17.48-26.94-1.66-2.49-4.25-2.72-6.59-1.09-2.2,1.53-2.15,3.82-.75,5.97,5.83,8.99,11.69,17.96,17.55,26.92.86,1.32,1.99,2.23,3.7,2.09Z"/><path class="cls-3" d="m220.48,718.07c.13-4.67,2.51-8.56,4.57-12.5,5.31-10.15,10.95-20.12,16.1-30.35,2.11-4.2,4.04-1.34,6.17-.57,2.59.94,3.34,2.13,1.79,4.96-6.3,11.46-12.27,23.1-18.45,34.63-1.46,2.72-2.13,5.14.97,7.09,2.49,1.57,4.91.5,6.84-3.12,6.14-11.56,12.25-23.13,18.3-34.74,1.01-1.94,1.91-3.75,4.21-1.6,1.65,1.55,6.26.96,3.55,5.79-6.4,11.41-12.27,23.1-18.48,34.62-5.45,10.11-16.21,10.99-23.45,2.03-1.46-1.81-2.22-3.88-2.11-6.25Z"/><path class="cls-3" d="m401.39,715.21c5.86,0,5.91,0,6.85,5.77,2.57,15.8,5.11,31.6,7.66,47.4.36,2.21-.39,3.08-2.78,3.12-5.83.1-5.71.2-6.57-5.66-.26-1.75.15-4.43-1.43-5.1-2.59-1.09-5.65-.53-8.49-.25-1.25.12-1.19,1.43-1.3,2.4-.22,1.85-.49,3.7-.6,5.56-.14,2.2-1.29,2.94-3.4,3.03-5.32.23-5.6.08-4.76-5.07,2.56-15.66,5.33-31.29,7.72-46.98.54-3.53,1.84-4.83,5.24-4.24.61.11,1.25.02,1.87.02Zm0,13.95c-.29,0-.58,0-.86-.01-.19.42-.48.82-.55,1.25-.98,6.46-1.93,12.92-2.9,19.38-.39,2.62,1.45,2.65,3.01,2.26,1.45-.36,4.55,1.78,4.06-2.13-.86-6.92-1.83-13.83-2.76-20.75Z"/><path class="cls-3" d="m337.14,712.19c-1.08,15.45-2.1,29.97-3.12,44.49-.05.75-.08,1.49-.09,2.24-.09,6.12-2.37,7.38-8.04,4.56-.91-.45-.91-1-.88-1.75.05-1.62.12-3.24.1-4.86-.02-1.63,1.91-3.81-.14-4.74-2.52-1.14-5.48-1.5-8.29-1.78-1.27-.13-1.25,1.64-1.69,2.62-.41.91-.69,1.87-1.03,2.81-1.47,4.12-4.54,5.21-8.37,3.03-1.62-.93-.86-2.05-.4-3.19,4.35-10.74,8.68-21.48,13.04-32.21,2.01-4.96,4.27-9.83,6.02-14.88.88-2.54,2.03-2.99,4.32-2.14,1.27.47,2.64.83,3.98.94,3.69.3,5.56,1.86,4.59,4.86Zm-8.75,8.24c-.28-.05-.57-.11-.85-.16-2.65,6.76-5.33,13.5-7.94,20.27-1.04,2.7,1.43,2.49,2.72,2.71,1.35.23,3.72,2.21,4.08-.79.88-7.32,1.35-14.68,1.99-22.02Z"/><path class="cls-3" d="m456.07,743.11c-.56-9.72-1.65-19.41-1.36-29.15.07-2.38.47-3.43,3.13-3.86,8.37-1.36,8.41-1.54,11.38,6.43,5.25,14.11,10.41,28.25,15.64,42.37.72,1.95.82,2.94-1.88,3.4-5.79.98-5.68,1.19-7.76-4.2-.64-1.67-.59-4.46-2.51-4.63-2.6-.23-5.33.74-7.97,1.31-.92.2-.72,1.18-.72,1.9,0,1.37.05,2.75.06,4.12.02,5.49,0,5.45-5.33,6.27-1.9.29-2.72-.18-2.7-2.27.09-7.23.03-14.46.03-21.69Zm7.05-20c-1.32,7.16.02,14.07.04,21.02,0,2.92,2.2,2.74,3.95,2.1,1.15-.43,4.14.72,3.23-2.16-2.22-7.05-4.79-13.98-7.22-20.96Z"/><path class="cls-3" d="m384.09,727.12c0,.77.06,1.28-.01,1.77-.25,1.63.92,4.12-1.15,4.66-2.17.56-4.77.27-6.97-.38-1.41-.42-.77-2.47-.51-3.72.35-1.73.81-3.37.22-5.13-.67-2.03-1.95-3.01-4.16-3-2.22,0-3.37.89-3.96,3.08-1.26,4.74-.95,9.63-1.64,14.42-.83,5.78-1.03,11.65-1.44,17.49-.19,2.75-.09,5.44,3.6,5.79,3.04.29,4.36-1.26,4.67-5.3.05-.62.11-1.24.19-1.86.75-6.63,1.29-6.97,7.73-5.39,1.11.27,1.47.79,1.35,1.8-.4,3.33-.51,6.73-1.3,9.97-1.68,6.92-7.65,10.21-15.44,8.86-6.67-1.16-10.84-7.3-10.06-14.86,1.05-10.25,2.1-20.51,3.19-30.76.74-6.97,4.54-10.76,11.51-11.53,6.39-.7,11.9,2.74,13.77,8.44.65,1.99.2,3.96.41,5.67Z"/><path class="cls-3" d="m192.4,700.74c-.4-3.64,1.98-6.52,3.83-9.6.65-1.08,1.51-1.17,2.52-.46.92.65,1.8,1.38,2.79,1.89,2.12,1.1,2.74,2.34.91,4.32-.84.91-1.22,2.15-1.39,3.42-.31,2.21.77,3.62,2.61,4.46,1.74.8,3.45.61,4.72-.98,2.42-3.02,3.79-6.38,3.12-10.36-.92-5.49-2.92-10.77-2.78-16.46.14-5.82,2.86-10.31,7.12-13.8,4.4-3.61,10.73-3.09,15.13.74,5.88,5.12,6.92,9.35,3.78,15.37-.06.11-.13.22-.18.33-2.37,4.53-5.61,4.68-8.88.51-.82-1.04-.12-1.56.28-2.27.67-1.19,1.42-2.32,1.57-3.76.19-1.81-.31-3.23-2-4.04-1.57-.75-3.1-.8-4.51.47-2.63,2.36-3.46,5.26-3.16,8.75.53,6.07,3.05,11.78,2.73,18.03-.36,6.76-4.78,13.53-11.04,16.02-7.11,2.83-17.09-4.3-17.16-12.58Z"/><path class="cls-3" d="m559.13,735.37c.11,1-.66,1.25-1.34,1.53-6.19,2.63-12.42,5.18-18.57,7.89-2.52,1.11-2.69-.82-3.29-2.22-5.54-12.95-11.06-25.9-16.59-38.85-1.03-2.41-1.98-4.86-3.16-7.19-.89-1.75-.64-2.62,1.25-3.4,5.75-2.38,11.5-4.79,17.12-7.46,4.01-1.91,3.77,1.58,4.88,3.42,1.29,2.15.97,3.49-1.69,4.33-2.72.86-5.21,2.41-7.92,3.32-2.82.95-2.9,2.41-1.7,4.76,1.53,2.99,2.01,7.32,4.38,8.86,2.68,1.74,5.96-1.83,9.02-2.95,1.56-.57,2.31-.19,2.88,1.22,2.76,6.8,3.36,5.03-2.86,7.78-5.9,2.6-5.97,2.55-3.22,8.55,1.39,3.03,1.7,7.59,4.41,8.7,2.71,1.11,6.03-2.08,9.12-3.28,4.04-1.57,7.42.67,7.27,4.97Z"/><path class="cls-3" d="m275.82,697.71c-1.16-.11-1.56.66-1.9,1.5-.52,1.27-1.04,2.54-1.56,3.81-3.21,7.8-3.25,7.87,4.72,11.14,2.14.88,3.61,1.62,2,4.09-1.21,1.86-.96,5.77-5.19,3.31-2.33-1.35-5.4-3.23-7.54-2.66-2.33.63-2.43,4.55-3.52,7.02-3.56,8.05-3.51,8.07,4.63,11.32.35.14.71.24,1.05.39,4.9,2.04,5.32,3.93,2.18,8.39-.87,1.24-1.58.84-2.49.45-6.19-2.63-12.34-5.37-18.58-7.86-2.61-1.04-.94-2.38-.48-3.48,4.98-11.95,10.04-23.86,15.06-35.79,1.55-3.68,3.1-7.36,4.54-11.08.57-1.47,1.26-1.83,2.75-1.2,6.08,2.58,12.2,5.04,18.28,7.59,3.09,1.3,1.03,3.35.51,5.01-.54,1.73-1.13,3.81-3.86,2.57-2.83-1.29-5.71-2.46-8.57-3.68-.69-.29-1.38-.57-2.03-.84Z"/><path class="cls-3" d="m546.52,679.6c2.18-.09,2.44,1.36,2.99,2.39,6.22,11.66,12.4,23.34,18.59,35.01q2.31,4.36,6.54,2.08c1.43-.77,2.82-1.6,4.27-2.33,5.33-2.72,3.85-2.53,6.69,2.2,1.26,2.09.99,3.13-1.22,4.23-5.24,2.61-10.42,5.37-15.52,8.25-1.99,1.12-2.91.76-3.95-1.23-6.66-12.7-13.45-25.33-20.2-37.99-.82-1.54-1.69-3.06-2.47-4.62-.7-1.39-2.56-3.1-1.53-4.23,1.6-1.75,4.08-2.69,5.81-3.75Z"/><path class="cls-3" d="m298.34,756.53c-3.13-1.05-6.32-2.12-9.51-3.17-.83-.27-1.67-.49-2.51-.75-9.25-2.83-9.14-2.79-6.14-11.79,4.49-13.46,8.78-26.99,13.23-40.46.42-1.27.29-3.47,2.4-3.25,2.32.25,4.78.67,6.62,2.22.92.78.02,2.09-.32,3.14-4.19,13.05-8.3,26.12-12.63,39.12-.92,2.75-.34,3.81,2.38,4.39,2.43.51,4.75,1.58,7.17,2.12,2.55.56,3.48,1.66,2.15,4.11-.81,1.48-.11,3.93-2.84,4.31Z"/><path class="cls-3" d="m257.63,65.22c4.03.03,9.27,7.51,7.72,12.8-.54,1.85-.81,2.65,1.41,3.55,3.73,1.51,7.52,10.17,6.66,14.1-.54,2.45-1.83,4.36-4.1,5.48-1.11.55-2.28.98-3.43,1.46-7.45,3.12-7.4,3.1-10.44-4.27-3.55-8.63-7.13-17.25-10.86-25.8-.91-2.09-.72-3.13,1.5-3.89,3.49-1.2,6.58-3.6,11.54-3.44Zm4.81,20.52c-3.81.06-4.7,1.33-3.63,4.09.8,2.08,1.72,4.12,2.49,6.21.53,1.44,1.16,1.88,2.76,1.24,3.31-1.33,3.93-2.55,2.16-6.42-.96-2.1-1.29-5.03-3.77-5.12Zm-2.75-8.04c-.21-1.64-.82-3.28-1.73-4.78-1.24-2.05-2.94-1.83-4.87-.98-2.45,1.07-.7,2.45-.34,3.66.36,1.18.91,2.32,1.5,3.42.57,1.05.46,3.08,2.58,2.3,1.58-.58,2.87-1.54,2.86-3.61Z"/><path class="cls-3" d="m543.66,70.88c-.71,2.87-1.4,7.36-5.79,9.92-.62.36-1.56.7-1.17,1.63,2.09,5.01-.83,9.15-2.27,13.55-.23.71-.41,1.45-.75,2.11-.7,1.35.09,4.09-3.29,2.84-2.85-1.05-3.87-2.25-2.55-5.16,1.07-2.37,1.83-4.89,2.8-7.31.48-1.2.63-2.41.49-3.66-.19-1.68-1.58-2.17-2.85-2.61-1.69-.58-1.74,1.06-2.11,1.95-1.47,3.56-2.97,7.11-4.15,10.77-.75,2.35-1.99,2.08-3.64,1.32-1.48-.68-3.42-.7-2.32-3.49,4.16-10.53,8.15-21.13,12.05-31.76.83-2.27,1.8-2.49,3.81-1.54,2.36,1.12,4.93,1.79,7.28,2.93,2.82,1.38,4.95,3.42,4.47,8.5Zm-10.49,6.25c2-.04,2.53-2.03,3.07-3.72.6-1.86,2.3-3.89.13-5.77-1.76-1.53-3.49-2.04-4.41.96-.51,1.65-1.02,3.32-1.77,4.86-1.41,2.89.22,3.46,2.98,3.67Z"/><path class="cls-3" d="m434.59,74.31c1.39-11.35,2.69-22.06,4.02-32.77.29-2.38,1.01-3.9,4.05-2.9,2.07.68,4.44.4,6.64.77,5.23.9,8.19,5.49,7.35,10.7-.98,6.11-1.87,12.24-2.48,18.39-.74,7.47-4.61,10.75-11.97,9.69-1.47-.21-2.95-.41-4.42-.67-2.12-.38-4.62-.51-3.19-3.21Zm6.83-4.54c-.23,1.05-.19,2.03,2,2.5,3.67.81,4.06-1.65,4.47-3.92.62-3.42.89-6.9,1.31-10.35.38-3.08.88-6.16,1.09-9.26.15-2.12-.79-3.51-3.25-3.67-1.64-.1-2.59.15-2.81,1.98-.88,7.39-1.82,14.77-2.81,22.71Z"/><path class="cls-3" d="m307.16,47.62c3.78-.23,6.25,1.82,7.53,5.03,3.19,7.99,4.72,16.46,6.6,24.81.99,4.38-2.35,8.35-7.05,9.53-4.85,1.21-8.94-.56-10.67-5.13-1.36-3.58-2.15-7.38-3.16-11.09-1-3.7-2.03-7.39-2.92-11.12-1.66-6.96,2.45-12.04,9.66-12.03Zm7.9,29.59c-1.78-6.74-3.68-14.19-5.77-21.6-.4-1.43-1.56-2.74-3.39-2.18-1.78.54-2.46,1.84-2.16,3.78,1.17,7.51,3.72,14.66,5.55,22,.39,1.57,1.72,2.44,3.5,2.06,1.77-.38,2.39-1.62,2.27-4.06Z"/><path class="cls-3" d="m582.44,123.3c-.29-2.14.93-3.98,2.03-5.74,3.62-5.8,7.28-11.59,11.12-17.25,3.7-5.46,7.84-6.4,13.09-3.3,4.71,2.78,5.96,7.54,2.73,12.94-4.02,6.72-7.91,13.58-12.92,19.65-2.29,2.78-5.33,4-9,2.56-4.51-1.78-7.05-4.87-7.06-8.85Zm9.11,3.13c.94.08,1.78-.17,2.3-.96,4.28-6.54,8.59-13.06,12.76-19.68.84-1.34.61-3-.97-3.91-1.49-.87-3.04-.56-3.97.84-4.2,6.29-8.42,12.59-12.37,19.04-1.4,2.29-.05,4.56,2.26,4.68Z"/><path class="cls-3" d="m496.75,81.47c.25-2.53,1.82-6.22,2.95-10.01,1.29-4.28,2.84-8.49,4.31-12.71,1.74-4.98,5.18-6.9,10.13-5.69,5.75,1.41,8.76,4.99,7.55,10.14-1.94,8.21-4.42,16.3-7.69,24.09-1.86,4.44-5.44,5.88-10.14,4.72-4.78-1.18-7.19-4.23-7.12-10.54Zm6.16,1.56c-.22,1.93.88,2.9,2.46,3.3,2.04.51,2.94-.88,3.47-2.53,2.2-6.84,4.42-13.67,6.53-20.53.6-1.97.23-3.84-2.1-4.43-2.29-.58-3.4.79-4.02,2.84-1.87,6.17-3.81,12.31-5.69,18.48-.29.94-.44,1.92-.65,2.88Z"/><path class="cls-3" d="m243.04,112.72c-2.98,0-5.23-1.26-6.77-3.84-5.13-8.57-9.01-17.78-13.56-26.65-1.33-2.59.84-2.87,2.24-3.7,1.53-.9,2.58-.88,3.51,1.04,3.96,8.17,8.08,16.27,12.15,24.39,1.12,2.23,2.47,3.98,5.17,1.96,1.77-1.33.89-2.95.19-4.38-3.81-7.85-7.68-15.67-11.54-23.5-1.63-3.3-1.16-4.23,2.36-5.28,1.05-.31,1.65-.18,2.11.77,4.45,9.19,9.27,18.23,13.24,27.63,2.47,5.84-2.42,11.51-9.11,11.57Z"/><path class="cls-3" d="m355.18,71.36c.63-9.61,1.34-20.17,1.98-30.73.07-1.21.5-1.6,1.69-1.91,5.71-1.52,6.73-.99,8.23,4.54,2.72,10.07,5.5,20.12,8.12,30.21.21.8,1.91,2.76-.5,2.77-1.77,0-4.28,1.94-5.47-1.14-.31-.81-.61-1.67-.67-2.52-.23-3.35-2.49-3.03-4.84-2.94-2.85.11-2.96,1.84-2.95,4.05,0,1.33.88,2.99-.96,4-2.89,1.57-4.61.58-4.64-2.75,0-.87,0-1.75,0-3.57Zm7.4-23.19c-1.35,4.02-.99,7.98-1.04,11.91-.06,4.93-.01,4.93,4.79,3.42-1.25-5.11-2.5-10.22-3.75-15.33Z"/><path class="cls-3" d="m342.03,73.16c0,5.75-2.08,8.16-7.86,9.32-4.09.82-8.1-1.21-9.25-5.64-2.17-8.39-4.19-16.86-4.84-25.53-.36-4.81,2.59-7.79,7.54-8.56,4.79-.75,8.16,1.17,9.73,5.58.37,1.05.72,2.14.89,3.24.23,1.46,1.3,3.4-1.55,3.56-1.88.11-4.42,1.47-4.21-2.31.03-.59-.3-1.2-.45-1.81-.46-1.82-1.66-2.92-3.49-2.67-1.81.25-2.3,1.78-2.05,3.43.79,5.15,1.61,10.29,2.49,15.43.33,1.94.91,3.84,1.29,5.77.42,2.13,1.06,4.08,3.79,3.42,2.62-.64,2.61-2.62,2.01-4.77-.17-.59-.05-1.28-.29-1.84-1.08-2.56-.02-3.35,2.48-3.84,2.89-.57,3.04.93,3.32,3.03.2,1.48.51,2.94.45,4.19Z"/><path class="cls-3" d="m218.17,122.92c-.07,4.45-3.08,7.93-7.54,9.33-3.15.99-7.05-.28-9.12-3.41-4.4-6.65-8.73-13.35-12.83-20.19-2.59-4.32-1.3-8.6,2.92-11.3,4.58-2.93,9.15-2.26,12.23,1.81.53.7.99,1.44,1.54,2.12,1.15,1.42,1.82,2.73-.34,3.9-1.63.88-3.21,2.38-4.53-.38-.32-.66-.8-1.26-1.28-1.83-1.16-1.38-2.59-2.07-4.26-.97-1.77,1.16-1.43,2.74-.47,4.25,3.39,5.37,6.81,10.72,10.24,16.07.67,1.05,1.31,2.15,2.16,3.04,1,1.06,2.27,1.53,3.69.6,1.41-.92,1.53-2.23.98-3.61-.41-1.03-1.05-1.98-1.63-2.94-1.85-3.1-1.43-4.31,1.93-5.62.61-.24,1.29-.49,1.69.11,1.97,3,4.14,5.92,4.63,9.03Z"/><path class="cls-3" d="m575.63,107.31c3.42-1.48,4.5-3.8,5.97-5.63,3.04-3.79,6.1-7.61,8.65-11.72,1.88-3.03,3.48-1.74,5.43-.51,2.98,1.88,0,3.01-.72,3.97-6.54,8.63-13.25,17.14-19.88,25.7-1.22,1.57-2.39,3.08-4.5,1.25-1.7-1.48-5.42-1.31-3.8-5.44,4.19-10.66,8.12-21.42,12.15-32.14.4-1.06.77-2.5,2.23-1.36,1.42,1.11,4.65.99,3.29,4.31-2.26,5.54-4.48,11.09-6.72,16.64-.54,1.33-1.12,2.64-2.1,4.97Z"/><path class="cls-3" d="m300.74,84.43c-.02,4.93-3.66,8.44-9.13,8.83-4.13.29-8.54-3.55-9.13-7.82-.21-1.52.45-2.03,1.76-2.21,1.33-.19,2.77-1.65,3.89.33.42.76.67,1.61,1.11,2.36.8,1.36,2,1.74,3.52,1.27,1.48-.46,1.82-1.56,1.76-2.91-.15-3.76-2.6-5.76-5.63-7.26-3.68-1.82-7.63-3.3-10.2-6.7-4.49-5.93-4.28-13.3,3.53-15.93,5.24-1.76,10.45,1.18,11.75,6.64.5,2.11-1.12,1.85-2.1,2.23-1.24.48-2.7,1.81-3.69-.39-.26-.56-.44-1.17-.75-1.7-.76-1.31-1.85-2.14-3.39-1.44-1.49.68-2.28,1.87-1.87,3.64.87,3.76,3.9,5.31,6.97,6.75,2.83,1.32,5.7,2.52,7.93,4.82,2.46,2.53,3.67,5.6,3.65,9.48Z"/><path class="cls-3" d="m463.34,73.56c-.2,1.48.46,2.05,1.87,2.2,1.73.19,3.42.68,5.15.83,2.81.24,2.88,1.93,2.51,4.1-.41,2.41-1.97,2.14-3.66,1.78-3.64-.77-7.25-1.69-10.93-2.22-2.11-.3-2.36-1.2-2.03-3,2.07-11.1,4.07-22.22,6.13-33.33.25-1.35.44-2.57,2.6-2.07,3.98.93,8.07,1.42,12.11,2.1,2.02.34,2.67,1.54,2.17,3.45-.47,1.77-.96,3.48-3.44,2.2-.41-.21-.99-.06-1.48-.15-6.08-1.16-5.93-1.13-7.37,4.58-.84,3.31,0,4.66,3.45,4.9,2.06.14,4.78.4,3.68,3.86-.51,1.6-.99,3.15-3.31,2.03-.97-.47-2.18-.41-3.26-.69-1.85-.48-2.73-.01-2.9,2.1-.2,2.46-.84,4.89-1.29,7.33Z"/><path class="cls-3" d="m499.86,56.68c-.08,3.41-.86,6.68-2.41,9.7-1.72,3.35-5.07,5.06-8.73,3.98-3.3-.97-4.46.17-4.99,3.23-.51,2.94-1.53,5.78-2.04,8.72-.52,2.93-2.29,2.16-4.17,1.86-1.98-.31-2.63-.79-2.02-3.1,2.84-10.83,5.52-21.7,7.99-32.61.61-2.72,1.68-2.88,3.86-2.09,1.99.72,4.07,1.2,6.1,1.8,5.24,1.55,6.42,3.12,6.42,8.5Zm-6.11.57c.29-3.17-1.27-3.75-3.07-4.29-2.35-.7-2.01,1.19-2.36,2.32-.62,2.02-1.2,4.05-1.61,6.12-.21,1.05-1.21,2.59.78,3.05,1.67.38,3.64.94,4.48-1.28.83-2.18,1.36-4.48,1.78-5.91Z"/><path class="cls-3" d="m415.09,49.45c.89-2.55,1.81-5.08,2.65-7.64,1.73-5.26,1.71-5.26,7.72-4.51-2.25,5.96-4.37,11.9-6.73,17.75-2.36,5.85-1.6,12.02-2.02,18.04-.21,3-1.73,2.6-3.62,2.71-2.03.12-3.22-.48-2.77-2.67,2.38-11.65-1.47-22.36-4.78-33.18-.3-.99-2.33-3.13.33-3.47,1.9-.25,4.93-1.76,5.78,2.03.82,3.62,1.81,7.2,2.72,10.8.24.05.48.1.72.14Z"/><path class="cls-3" d="m552.84,75.46c.18-1.84-1.39-2.05-2.42-2.37-2.81-.89-2.34-2.48-1.48-4.58,1.01-2.48,2.35-1.41,3.83-.72,3.95,1.85,7.86,3.78,11.9,5.4,2.29.92,2.18,2.04,1.45,4.01-.81,2.2-2,2.27-3.62,1.22-3.05-1.97-4.04-.41-5.2,2.36-3.37,8.03-7.17,15.88-10.62,23.89-1.04,2.41-2.2,2.37-4.28,1.44-2.19-.97-2.68-1.91-1.58-4.21,3.76-7.84,7.28-15.8,10.89-23.72.41-.91.77-1.84,1.13-2.72Z"/><path class="cls-3" d="m208.72,87.49c1.67-.05,1.67,1.26,2.11,2.03,4.55,7.89,9.16,15.75,13.46,23.77,1.29,2.41,2.38,2.79,4.47,1.25.99-.73,2.13-1.27,3.19-1.91,1.53-.91,2.82-2,4.1.62.99,2.02,1.41,3.11-1.03,4.27-3.14,1.5-6.16,3.3-9.07,5.22-1.92,1.27-2.91,1.11-4.07-.95-5.53-9.91-11.21-19.73-16.81-29.61-.97-1.7,1.58-4.71,3.63-4.7Z"/><path class="cls-3" d="m385.36,75.75c-7.32.01-7.34.02-7.66-7.15-.43-9.7-.76-19.41-1.27-29.11-.08-1.57-.42-2.91,1.74-2.48,1.69.34,4.77-1.58,4.57,2.3-.33,6.48.65,12.91.69,19.38.02,2.98.49,5.95.54,8.93.03,2.21,1.02,2.8,3.01,2.51,1.23-.18,2.48-.2,3.73-.27,1.45-.08,3.33-1.22,3.4,1.73.06,2.37-.02,4.28-3.13,4.16-1.87-.07-3.74-.01-5.61-.01Z"/><path class="cls-3" d="m575.84,79.69c-.32.72-.61,1.41-.94,2.07-4.98,9.87-9.99,19.72-14.95,29.6-.79,1.57-1.52,3.06-3.49,1.4-1.17-.98-4.09-.66-2.5-3.73,5.25-10.15,10.35-20.38,15.55-30.56.51-1.01.99-2.64,2.68-1.56,1.27.81,3.23.81,3.65,2.78Z"/><path class="cls-3" d="m352.59,77.11c.41,2.87-2.08,1.55-3.29,2.1-1.63.74-2.8.32-3.08-1.81-.66-4.92-1.53-9.8-2.23-14.71-.93-6.51-1.48-13.09-2.79-19.52-.85-4.13,2.44-2.14,3.64-2.88,2.15-1.32,2.39,1.09,2.58,2.31,1.2,7.46,2.21,14.95,3.31,22.43.59,4.03,1.24,8.05,1.86,12.08Z"/><path class="cls-4" d="m508.86,719.86c-1.31-1.67-.55-3.66-1.36-6.15,2.78,1.78,1.4,4.35,2.6,5.89-.42.08-.83.17-1.24.25Z"/><path class="cls-4" d="m490.93,726.47c-.74-1.79-1.54-3.56-1.49-6.17,1.33,2.27,2.97,3.74,2.67,6.12-.39.01-.78.03-1.18.05Z"/><path class="cls-5" d="m399.68,140.31c19.96.59,41.7.84,63.38,1.99,24.97,1.32,49.86,3.8,74.73,6.59,26.05,2.92,51.81,7.49,77.51,12.52,2.01.39,2.61,1.13,2.95,3.02,2.54,14.17,5.44,28.27,7.11,42.59,1.49,12.72,3.12,25.41,4.21,38.18,1.85,21.64,3.18,43.3,3,65.01-.5,59.33-13.23,115.84-40.04,168.92-14.29,28.29-31.95,54.33-52.81,78.25-31.41,36.03-68.25,65.25-109.9,88.5-8.06,4.5-16.43,8.42-24.84,12.26-3.76,1.72-7.15,1.47-10.72-.22-15.69-7.42-30.99-15.58-45.63-24.92-14.52-9.27-28.47-19.35-41.71-30.35-27.5-22.85-51.34-49.03-71.79-78.42-29.74-42.75-49.88-89.49-60.05-140.55-6.86-34.45-7.77-69.32-6.85-104.26.71-27.15,3.82-54.12,7.84-80.96,1.64-10.91,3.87-21.73,5.65-32.62.48-2.94,1.94-4.38,4.71-4.93,22.53-4.5,45.14-8.41,67.94-11.27,15.8-1.98,31.65-3.4,47.49-4.98,31.95-3.17,64.01-3.37,97.82-4.33Zm-5.58,10.64c-12.07.37-27.17.96-42.28,1.25-20.2.39-40.31,2.2-60.41,4-17.82,1.6-35.55,3.97-53.23,6.72-14.49,2.26-28.91,4.89-43.3,7.75-4.02.8-5.68,3.09-6.26,6.79-2.84,18.15-6.21,36.22-8.39,54.48-1.87,15.58-3.33,31.21-4.11,46.86-1.12,22.44-.95,44.89,1.16,67.33,1.67,17.73,4.15,35.27,8.28,52.59,7.57,31.74,19.06,61.95,35.14,90.36,25.59,45.19,58.65,83.93,100.02,115.49,22.11,16.87,45.7,31.28,70.82,43.21,4.25,2.02,8.42,3,12.91.76,5.36-2.67,10.84-5.11,16.17-7.85,29.1-15,55.54-33.78,80.02-55.51,15.65-13.89,29.97-28.97,42.98-45.28,30.18-37.81,51.93-79.95,65.23-126.56,8.88-31.12,13-62.81,13.7-95.03.39-17.85-.54-35.67-1.77-53.48-.83-12.05-2.02-24.04-3.4-36.02-2.04-17.77-4.95-35.4-8.47-52.94-.71-3.56-2.14-4.31-5.06-4.9-27.66-5.53-55.49-10.07-83.53-13.14-16.57-1.81-33.19-3.33-49.83-4.41-24.42-1.58-48.9-2-76.4-2.48Z"/><path class="cls-5" d="m436.6,730.95c-.04,1.71.55,3.58-.63,5.05-1.36,1.71-3.42,1.91-5.43,1.75-2.25-.18-1.06-2.11-1.47-3.21-1.24-3.31-.12-6.91-1.19-10.28-.34-1.08-.12-2.32,1.56-2.26,2.38.09,5.15-.81,6.4,2.35.84,2.12.89,4.35.78,6.6Z"/><path class="cls-5" d="m597.25,705.81c-1.71.15-2.84-.76-3.7-2.08-5.86-8.97-11.72-17.94-17.55-26.92-1.4-2.16-1.45-4.44.75-5.97,2.34-1.63,4.93-1.41,6.59,1.09,5.92,8.91,11.79,17.87,17.48,26.94,2.11,3.37.13,6.86-3.57,6.96Z"/><path class="cls-5" d="m401.39,729.16c.93,6.92,1.9,13.83,2.76,20.75.48,3.91-2.61,1.76-4.06,2.13-1.56.39-3.4.36-3.01-2.26.97-6.46,1.91-12.92,2.9-19.38.07-.44.36-.84.55-1.25.29,0,.58,0,.86.01Z"/><path class="cls-5" d="m328.39,720.43c-.64,7.34-1.11,14.71-1.99,22.02-.36,3-2.73,1.03-4.08.79-1.29-.22-3.76,0-2.72-2.71,2.61-6.77,5.29-13.52,7.94-20.27.28.05.57.11.85.16Z"/><path class="cls-5" d="m463.13,723.12c2.43,6.98,5.01,13.92,7.22,20.96.9,2.87-2.08,1.73-3.23,2.16-1.75.65-3.95.82-3.95-2.1-.02-6.96-1.35-13.87-.04-21.02Z"/><path class="cls-5" d="m262.43,85.74c2.48.09,2.81,3.02,3.77,5.12,1.76,3.87,1.14,5.09-2.16,6.42-1.59.64-2.23.2-2.76-1.24-.76-2.09-1.68-4.13-2.49-6.21-1.07-2.76-.18-4.04,3.63-4.09Z"/><path class="cls-5" d="m259.68,77.7c.01,2.07-1.28,3.03-2.86,3.61-2.13.78-2.01-1.25-2.58-2.3-.59-1.09-1.14-2.23-1.5-3.42-.36-1.21-2.12-2.59.34-3.66,1.93-.84,3.63-1.07,4.87.98.91,1.5,1.52,3.14,1.73,4.78Z"/><path class="cls-5" d="m533.16,77.13c-2.75-.21-4.39-.78-2.98-3.67.75-1.54,1.27-3.22,1.77-4.86.92-3,2.64-2.48,4.41-.96,2.17,1.88.46,3.91-.13,5.77-.54,1.69-1.07,3.68-3.07,3.72Z"/><path class="cls-5" d="m441.42,69.77c.99-7.95,1.93-15.33,2.81-22.71.22-1.83,1.17-2.08,2.81-1.98,2.45.15,3.39,1.55,3.25,3.67-.21,3.1-.72,6.17-1.09,9.26-.42,3.45-.68,6.93-1.31,10.35-.41,2.27-.8,4.73-4.47,3.92-2.19-.48-2.23-1.45-2-2.5Z"/><path class="cls-5" d="m315.06,77.21c.12,2.44-.5,3.68-2.27,4.06-1.77.38-3.1-.49-3.5-2.06-1.83-7.34-4.38-14.49-5.55-22-.3-1.94.37-3.24,2.16-3.78,1.83-.56,2.99.75,3.39,2.18,2.08,7.41,3.99,14.86,5.77,21.6Z"/><path class="cls-5" d="m591.55,126.44c-2.31-.12-3.66-2.39-2.26-4.68,3.95-6.45,8.17-12.74,12.37-19.04.93-1.4,2.48-1.71,3.97-.84,1.58.92,1.81,2.58.97,3.91-4.16,6.62-8.47,13.14-12.76,19.68-.52.79-1.36,1.04-2.3.96Z"/><path class="cls-5" d="m502.91,83.03c.21-.96.37-1.94.65-2.88,1.89-6.16,3.82-12.31,5.69-18.48.62-2.04,1.72-3.42,4.02-2.84,2.33.59,2.7,2.46,2.1,4.43-2.11,6.86-4.32,13.7-6.53,20.53-.53,1.65-1.44,3.05-3.47,2.53-1.58-.4-2.69-1.37-2.46-3.3Z"/><path class="cls-5" d="m362.59,48.17c1.25,5.11,2.5,10.22,3.75,15.33-4.8,1.51-4.84,1.51-4.79-3.42.05-3.93-.31-7.89,1.04-11.91Z"/><path class="cls-5" d="m493.76,57.25c-.42,1.43-.95,3.73-1.78,5.91-.85,2.22-2.81,1.67-4.48,1.28-1.99-.46-.99-2-.78-3.05.41-2.07.99-4.11,1.61-6.12.35-1.13.01-3.03,2.36-2.32,1.8.54,3.36,1.12,3.07,4.29Z"/><path class="cls-1" d="m394.11,150.95c27.5.48,51.98.9,76.4,2.48,16.64,1.07,33.25,2.6,49.83,4.41,28.04,3.07,55.86,7.6,83.53,13.14,2.92.58,4.35,1.34,5.06,4.9,3.52,17.55,6.43,35.18,8.47,52.94,1.37,11.98,2.56,23.98,3.4,36.02,1.23,17.82,2.16,35.63,1.77,53.48-.71,32.22-4.82,63.92-13.7,95.03-13.3,46.61-35.05,88.75-65.23,126.56-13.02,16.31-27.33,31.38-42.98,45.28-24.48,21.73-50.92,40.51-80.02,55.51-5.32,2.74-10.8,5.18-16.17,7.85-4.49,2.23-8.66,1.26-12.91-.76-25.12-11.93-48.7-26.34-70.82-43.21-41.37-31.56-74.43-70.3-100.02-115.49-16.08-28.4-27.57-58.62-35.14-90.36-4.13-17.32-6.61-34.87-8.28-52.59-2.11-22.44-2.28-44.89-1.16-67.33.78-15.65,2.25-31.28,4.11-46.86,2.19-18.26,5.55-36.33,8.39-54.48.58-3.7,2.24-5.99,6.26-6.79,14.39-2.86,28.81-5.49,43.3-7.75,17.68-2.76,35.41-5.13,53.23-6.72,20.1-1.8,40.2-3.61,60.41-4,15.11-.29,30.21-.88,42.28-1.25Zm-174.14,147.05c.29,0,.57,0,.86,0,.54,29.48,1.09,58.96,1.6,88.44.09,4.97.02,5.03,5.13,4.97,33.85-.4,67.71-.79,101.56-1.33,3.37-.05,4.23.97,4.22,4.2-.03,10.37.12,20.73.43,31.1.82,27.47,1.09,54.95,1.54,82.42.02,1.31.71,3.08-.63,3.84-1.37.77-2.52-.74-3.54-1.53-13.44-10.26-25.88-21.62-36.38-34.9-5.62-7.11-11.28-14.4-13.01-23.72-1.26-6.79-1-13.68-.9-20.52.05-3.03-.71-4.06-3.9-3.97-13.24.38-26.48.5-39.72.68-3.75.05-7.5.08-11.25-.01-2.03-.05-2.69.67-2.96,2.77-1.48,11.68-.18,23.19,2.28,34.53,4.81,22.18,17.3,40.14,32.41,56.41,17.56,18.91,37.37,35.24,58.49,50.03,18.64,13.05,38.21,24.55,58.09,35.56,5.89,3.26,11.67,6.74,17.93,9.3,2.28.94,3.27.52,3.12-2.08-.22-3.74-.44-7.49-.48-11.23-.33-27.86-.87-55.71-1.37-83.56-.47-26.35-.94-52.71-1.43-79.06-.64-34.48-.8-68.97-1.16-103.45-.01-1.12-.1-2.25-.08-3.37.03-2.03-.84-2.88-2.96-2.75-5.24.3-10.48.62-15.73.64-29.74.14-59.48.15-89.21,1.07-2.72.08-3.61-1.03-3.56-3.45.09-4.25-.51-8.48-.59-12.71-.41-22.61-.92-45.22-.83-67.84.02-3.98,1.41-5.39,5.01-6.11,14.26-2.86,28.45-6.09,42.84-8.3,5.11-.78,5.13-.85,5.1,4.23-.1,17.74.54,35.47,1,53.2.08,3.12,1.56,4,4.16,3.83,16.71-1.12,33.47.48,50.19-.92,3.31-.28,3.92-1.57,3.87-4.41-.42-20.98-.79-41.97-1.12-62.95-.28-17.86-.49-35.73-.75-53.59-.03-2.12-.21-4.25-.22-6.37-.01-2.06-1.01-2.83-3.02-2.9-4.16-.16-8.24.51-12.25,1.29-27.2,5.34-54.37,10.87-81.55,16.29-22.42,4.47-44.84,8.93-67.29,13.23-3.42.66-4.98,1.82-4.64,5.57.5,5.47.64,10.98.65,16.47.06,26.99.03,53.97.03,80.96Zm247.73,212.05c-.67-2.39-1.04-4.67-1.03-7.06.04-10.87.15-21.75-.07-32.62-.56-27.47-1.42-54.94-1.89-82.41-.44-25.61.05-51.25-.92-76.84-.98-25.87-.43-51.72-.92-77.57-.04-2.11.63-2.59,2.6-2.25,15.8,2.69,31.59,5.44,47.43,7.87,2.98.46,3.38,1.76,3.31,4.16-.4,15.25.61,30.48.58,45.72,0,2.96,1.02,3.53,3.68,3.47,7.12-.16,14.25.07,21.37-.09,9.36-.21,18.71-.79,28.07-.92,3.99-.06,4.73-2.05,4.66-5.41-.25-12.86-.12-25.72-.55-38.59-.6-17.72.07-35.47-.79-53.21-.11-2.32-.47-3.69-3.07-4.1-3.79-.6-7.49-1.73-11.28-2.36-24.62-4.1-49.26-8.12-73.88-12.17-25.88-4.26-51.79-8.42-77.63-12.9-3.52-.61-3.81.2-3.81,3.27-.05,37.86.7,75.71,1.61,113.56.63,26.35.89,52.71,1.39,79.06.48,25.1.92,50.21,1.38,75.32.75,40.97,1.2,81.95,1.77,122.93.24,17.61.46,35.23.7,52.84.02,1.62.16,3.25.17,4.87.02,2.03.88,2.38,2.58,1.46,3.95-2.14,8-4.1,11.86-6.39,29.54-17.52,58.25-36.28,84.58-58.44,17.24-14.51,33.26-30.2,46.16-48.82,8.94-12.9,16.65-26.39,19.6-42.08,2.11-11.21,2.47-22.49,1.68-33.87-.22-3.17-1.14-3.98-4.15-3.93-16.99.32-33.98.51-50.97.63-2.47.02-3.37.94-3.33,3.28.07,4.23.16,8.44.63,12.68,1.05,9.57-2.83,17.79-7.84,25.57-9.9,15.38-22.93,27.94-36.43,40.04-2.13,1.91-3.86,4.67-7.21,5.29Z"/><path class="cls-5" d="m219.97,298c0-26.99.03-53.97-.03-80.96-.01-5.49-.15-11.01-.65-16.47-.34-3.76,1.22-4.92,4.64-5.57,22.45-4.3,44.87-8.76,67.29-13.23,27.19-5.42,54.35-10.95,81.55-16.29,4.01-.79,8.1-1.45,12.25-1.29,2.01.08,3.01.84,3.02,2.9.02,2.12.19,4.25.22,6.37.26,17.86.46,35.73.75,53.59.33,20.98.7,41.97,1.12,62.95.06,2.84-.55,4.13-3.87,4.41-16.72,1.4-33.48-.2-50.19.92-2.59.17-4.08-.71-4.16-3.83-.46-17.73-1.1-35.46-1-53.2.03-5.08.01-5.01-5.1-4.23-14.39,2.2-28.58,5.44-42.84,8.3-3.61.72-5,2.13-5.01,6.11-.09,22.62.42,45.23.83,67.84.08,4.22.68,8.46.59,12.71-.05,2.42.84,3.53,3.56,3.45,29.73-.92,59.47-.93,89.21-1.07,5.24-.03,10.49-.34,15.73-.64,2.11-.12,2.98.72,2.96,2.75-.01,1.12.07,2.25.08,3.37.37,34.48.53,68.97,1.16,103.45.49,26.35.96,52.71,1.43,79.06.49,27.85,1.04,55.71,1.37,83.56.04,3.75.26,7.49.48,11.23.15,2.59-.83,3.01-3.12,2.08-6.26-2.57-12.04-6.04-17.93-9.3-19.88-11.01-39.45-22.51-58.09-35.56-21.12-14.79-40.93-31.12-58.49-50.03-15.11-16.27-27.6-34.23-32.41-56.41-2.46-11.34-3.76-22.86-2.28-34.53.27-2.1.93-2.82,2.96-2.77,3.75.09,7.5.07,11.25.01,13.24-.19,26.48-.31,39.72-.68,3.2-.09,3.95.94,3.9,3.97-.11,6.85-.37,13.73.9,20.52,1.73,9.32,7.39,16.61,13.01,23.72,10.5,13.28,22.94,24.64,36.38,34.9,1.02.78,2.18,2.3,3.54,1.53,1.34-.75.65-2.53.63-3.84-.45-27.48-.71-54.96-1.54-82.42-.31-10.37-.46-20.73-.43-31.1,0-3.23-.85-4.26-4.22-4.2-33.85.54-67.71.92-101.56,1.33-5.11.06-5.05,0-5.13-4.97-.52-29.48-1.07-58.96-1.6-88.44-.29,0-.57,0-.86,0Z"/><path class="cls-5" d="m467.7,510.05c3.35-.62,5.08-3.37,7.21-5.29,13.49-12.1,26.53-24.66,36.43-40.04,5.01-7.78,8.89-16,7.84-25.57-.46-4.24-.56-8.44-.63-12.68-.04-2.35.87-3.27,3.33-3.28,16.99-.12,33.98-.31,50.97-.63,3.01-.06,3.93.75,4.15,3.93.79,11.38.43,22.66-1.68,33.87-2.95,15.69-10.66,29.18-19.6,42.08-12.9,18.62-28.92,34.31-46.16,48.82-26.33,22.17-55.04,40.92-84.58,58.44-3.86,2.29-7.91,4.25-11.86,6.39-1.7.92-2.56.57-2.58-1.46-.01-1.62-.15-3.25-.17-4.87-.24-17.61-.45-35.23-.7-52.84-.57-40.98-1.02-81.96-1.77-122.93-.46-25.11-.9-50.21-1.38-75.32-.51-26.35-.76-52.71-1.39-79.06-.91-37.85-1.66-75.69-1.61-113.56,0-3.07.3-3.88,3.81-3.27,25.85,4.48,51.75,8.65,77.63,12.9,24.63,4.05,49.26,8.07,73.88,12.17,3.79.63,7.49,1.75,11.28,2.36,2.6.41,2.96,1.78,3.07,4.1.86,17.73.2,35.49.79,53.21.43,12.87.31,25.73.55,38.59.06,3.36-.67,5.36-4.66,5.41-9.36.13-18.71.71-28.07.92-7.12.16-14.25-.07-21.37.09-2.66.06-3.69-.52-3.68-3.47.03-15.24-.98-30.47-.58-45.72.06-2.41-.33-3.71-3.31-4.16-15.84-2.43-31.63-5.18-47.43-7.87-1.97-.34-2.64.14-2.6,2.25.49,25.85-.06,51.71.92,77.57.97,25.59.49,51.23.92,76.84.47,27.47,1.33,54.94,1.89,82.41.22,10.87.11,21.74.07,32.62,0,2.4.36,4.68,1.03,7.06Z"/></svg>