<?xml version="1.0" encoding="UTF-8"?><svg id="Capa_1" xmlns="http://www.w3.org/2000/svg" viewBox="0 0 799.2 799.28"><defs><style>.cls-1{fill:#b3b3b3;}.cls-1,.cls-2,.cls-3{stroke-width:0px;}.cls-2{fill:#ccc;}.cls-3{fill:#fbfbfb;}.cls-4{opacity:.3;}</style></defs><g class="cls-4"><path class="cls-1" d="m398.04,799c-6.87,0-13.75-.17-20.62.03-15.67.46-30.99-2.27-46.39-4.52-33.83-4.95-65.69-16.43-96.71-30.09-28.5-12.54-54.94-28.84-79.45-48.18-8.08-6.37-15-13.92-22.46-20.9-12.14-11.34-24.34-22.69-35.62-34.86-11.69-12.61-22.02-26.46-31.41-40.9-17.75-27.3-32.66-56.14-43.01-87.01-8.65-25.8-15.72-52.13-19.15-79.26-3.1-24.58-3.76-49.3-2.84-73.99,1.31-35.49,8.57-69.97,19.45-103.77,13.04-40.54,32.66-77.59,57.65-111.94,10.51-14.44,21.89-28.06,34.35-40.92,32.07-33.12,68.48-60.15,109.69-80.83,32.26-16.2,66.13-27.62,101.5-34.56,18.31-3.59,36.8-5.77,55.5-6.71,23.38-1.17,46.67-.63,69.86,2.04,39.84,4.58,78.04,15.41,114.69,31.73,34.17,15.21,65.66,34.74,94.12,58.98,13.38,11.4,26.76,22.86,38.33,36.21,19.55,22.57,37.6,46.2,52.4,72.23,16.53,29.07,29.5,59.61,38.44,91.85,5.49,19.8,9.15,39.95,11.58,60.36,2.23,18.81.73,37.67,1.2,56.51.76,30.09-3.55,59.55-10.96,88.62-13.32,52.27-36.41,99.88-69.01,142.8-14.59,19.2-30.43,37.49-48.51,53.43-27.07,23.87-56.01,45.23-88.53,61.46-32.62,16.28-66.64,28.33-102.32,35.72-26.97,5.59-54.24,7.56-81.75,6.49Zm380.52-398.37c-1.24-208.97-167.01-376.12-372.43-378.55C191.49,19.54,26.35,188.84,22.22,392.2c-4.34,213.44,166.93,386.34,378.27,386.05,207.03-.29,377.23-166.71,378.07-377.62Z"/><path class="cls-1" d="m510.1,719.61c2.81,9.05,5.55,18.12,8.45,27.14,1.62,5.06,1.71,4.93,6.78,3.49,2.04-.58,2.91-1.14,2.15-3.53-4.43-13.97-8.63-28.02-13.08-41.98-.92-2.89-.46-7.34-3.24-8.24-2.46-.8-5.85,1.5-8.89,2.11-2.39.48-2.68,1.85-2.33,3.79.81,4.5,1.71,8.99,2.44,13.51,1.05,6.54,1.98,13.09,2.97,19.64-1.14-.71-1.67-1.62-2.12-2.58-3.55-7.42-6.97-14.9-10.68-22.24-1.3-2.58-1.48-6.72-4.35-7.3-2.57-.52-5.61,1.59-8.51,2.24-2.31.51-2.81,1.61-2.15,3.72,4.93,15.92,9.88,31.84,14.69,47.79.77,2.55,1.84,3.21,4.19,1.99,1.84-.95,4.95-.36,3.56-4.38-3.23-9.36-6.05-18.87-9.04-28.31.39-.02.78-.04,1.18-.06,5.26,8.54,9.02,17.84,13.42,26.81.96,1.97,2,3.06,4.26,1.93,1.91-.95,4.53-.72,3.85-4.46-1.85-10.23-3.22-20.55-4.78-30.83.41-.08.83-.17,1.24-.25Z"/><path class="cls-1" d="m655.86,319.06c-.16,12.85-.24,25.67-1.3,38.52-1.23,15.01-2.68,29.96-4.96,44.85-6.4,41.75-17.75,81.88-37.38,119.52-16.26,31.17-34.22,61.14-58.04,87.26-20.49,22.47-42.52,43.22-67.5,60.68-9.71,6.79-19.6,13.31-29.37,20.01-.74.51-2.12.93-1.85,2.11.32,1.42,1.83,1.09,2.84,1.12,7.24.24,14.48.13,21.68-.75,16.55-2.02,32.37-6.74,47.49-13.6,43.82-19.89,80.85-48.76,111.19-86,25.43-31.22,43.51-66.44,55-105.05,7.71-25.89,11.98-52.36,12.81-79.34.5-16.45-.29-32.85-2.48-49.22-2.56-19.06-6.68-37.72-12.69-55.95-8.52-25.86-20.97-49.81-35.68-72.64-1.34-2.09-2.95-4.01-4.5-5.95-.35-.44-1.07-.93-1.52-.86-1,.17-.71,1.18-.66,1.84.23,3.1.37,6.22.85,9.29,2.59,16.61,4.09,33.33,5.31,50.08.82,11.33.85,22.71.77,34.07Z"/><path class="cls-1" d="m150.64,223.43c-7.57,9.97-14.19,20.36-20.14,31.18-21.68,39.37-32.62,81.88-36.35,126.39-1.87,22.33-.24,44.61,3.24,66.68,3.98,25.27,11.24,49.64,21.24,73.24,15.04,35.48,36.6,66.51,63.05,94.32,6.98,7.34,14.99,13.52,22.65,20.1,26.31,22.59,55.46,40.24,88.58,50.96,15.75,5.1,31.93,7.48,48.51,6.87,1.02-.04,2.57.5,2.92-.89.28-1.12-.86-2.04-1.76-2.68-2.42-1.75-4.85-3.51-7.41-5.05-21.61-13.1-41.49-28.51-60.12-45.52-13.74-12.54-26.3-26.23-38.24-40.54-19.86-23.8-36.29-49.74-49.88-77.53-11.8-24.14-20.62-49.39-27.65-75.29-8.99-33.15-13.44-67-14.98-101.22-.51-11.33-.57-22.71-.25-34.09.3-10.48.79-20.93,1.43-31.39.75-12.18,1.93-24.31,3.35-36.42.74-6.34,2.35-12.59,1.8-19.11Z"/><path class="cls-3" d="m746.6,397.93c-.33-12.08-.96-25.12-2.39-38.16-2.32-21.21-6.72-41.93-12.73-62.37-10.92-37.13-28.36-71.01-50.6-102.54-1.29-1.84-2.66-3.65-4.66-4.79-1.56-.89-3.14-.88-4.52.32-1.23,1.07-1.54,2.39-1.08,4.05.51,1.89,1.65,3.35,2.71,4.87,8.82,12.57,17.06,25.49,24.46,38.96,24.91,45.38,37.75,94.12,39.93,145.67,1.18,27.95-1.26,55.7-6.91,83.15-6.29,30.59-15.95,59.95-31.17,87.35-.48.86-.98,1.81-1.11,2.76-.26,1.96-.64,4.23,1.72,5.2,2.35.96,4.49.14,5.89-1.96.96-1.44,1.56-3.12,2.36-4.67,25.46-49.17,37.62-101.58,38.11-157.83Z"/><path class="cls-1" d="m62.61,395.84c-.46-8.39.43-19.71,1.58-30.98,1.86-18.19,5.11-36.15,9.73-53.86,6.26-24,15.12-46.96,26.49-68.99,7.75-15,16.78-29.18,26.78-42.75,1.27-1.73,2.36-3.54,2.57-5.73.15-1.58-.23-2.95-1.68-3.89-1.43-.91-2.67-.28-3.84.44-2.06,1.28-3.4,3.28-4.77,5.21-14.32,20.21-26.81,41.46-36.76,64.17-18.74,42.79-27.78,87.67-28.75,134.24-.31,14.58.98,29.11,2.5,43.63,1.91,18.23,5.61,36.09,10.24,53.79,5.58,21.33,14.27,41.45,23.63,61.32,1.33,2.82,2.63,5.66,4.15,8.38,1.02,1.82,2.79,2.49,4.83,1.76,1.97-.7,2.39-2.28,2.32-4.21-.08-2.34-1.02-4.35-2.08-6.34-5.64-10.58-10.62-21.49-14.82-32.7-14.56-38.82-22.37-78.93-22.12-123.47Z"/><path class="cls-1" d="m220.48,718.07c-.11,2.37.65,4.44,2.11,6.25,7.24,8.96,17.99,8.07,23.45-2.03,6.21-11.51,12.09-23.21,18.48-34.62,2.71-4.83-1.9-4.24-3.55-5.79-2.3-2.16-3.19-.35-4.21,1.6-6.05,11.6-12.16,23.18-18.3,34.74-1.92,3.62-4.34,4.69-6.84,3.12-3.1-1.95-2.43-4.37-.97-7.09,6.18-11.53,12.16-23.17,18.45-34.63,1.55-2.83.8-4.02-1.79-4.96-2.13-.78-4.06-3.64-6.17.57-5.15,10.23-10.79,20.2-16.1,30.35-2.06,3.94-4.43,7.83-4.57,12.5Z"/><path class="cls-1" d="m384.09,727.12c-.21-1.7.25-3.68-.41-5.67-1.87-5.7-7.38-9.15-13.77-8.44-6.96.77-10.77,4.55-11.51,11.53-1.08,10.25-2.13,20.51-3.19,30.76-.78,7.56,3.39,13.7,10.06,14.86,7.78,1.35,13.75-1.94,15.44-8.86.79-3.24.9-6.64,1.3-9.97.12-1.01-.24-1.52-1.35-1.8-6.44-1.58-6.98-1.24-7.73,5.39-.07.62-.14,1.24-.19,1.86-.31,4.04-1.64,5.59-4.67,5.3-3.68-.35-3.79-3.04-3.6-5.79.41-5.84.61-11.71,1.44-17.49.69-4.8.38-9.69,1.64-14.42.58-2.2,1.74-3.07,3.96-3.08,2.22,0,3.49.98,4.16,3,.58,1.76.13,3.4-.22,5.13-.25,1.25-.9,3.3.51,3.72,2.19.65,4.8.94,6.97.38,2.07-.53.89-3.03,1.15-4.66.08-.49.01-1,.01-1.77Z"/><path class="cls-1" d="m192.4,700.74c.07,8.27,10.05,15.41,17.16,12.58,6.26-2.49,10.68-9.26,11.04-16.02.33-6.24-2.2-11.96-2.73-18.03-.3-3.48.53-6.38,3.16-8.75,1.42-1.27,2.94-1.22,4.51-.47,1.69.8,2.19,2.22,2,4.04-.15,1.44-.91,2.57-1.57,3.76-.4.71-1.1,1.23-.28,2.27,3.27,4.17,6.51,4.03,8.88-.51.06-.11.13-.21.18-.33,3.14-6.02,2.1-10.25-3.78-15.37-4.4-3.83-10.72-4.35-15.13-.74-4.26,3.49-6.97,7.98-7.12,13.8-.14,5.7,1.86,10.98,2.78,16.46.67,3.97-.7,7.33-3.12,10.36-1.27,1.59-2.98,1.78-4.72.98-1.85-.85-2.92-2.26-2.61-4.46.18-1.28.55-2.51,1.39-3.42,1.82-1.97,1.21-3.21-.91-4.32-.99-.51-1.87-1.24-2.79-1.89-1-.71-1.87-.62-2.52.46-1.86,3.08-4.23,5.96-3.83,9.6Z"/><path class="cls-1" d="m559.13,735.38c.14-4.3-3.24-6.54-7.28-4.97-3.09,1.2-6.42,4.39-9.12,3.28-2.71-1.11-3.02-5.67-4.41-8.7-2.75-6-2.67-5.95,3.22-8.55,6.22-2.74,5.62-.97,2.86-7.78-.58-1.42-1.32-1.8-2.88-1.22-3.06,1.12-6.34,4.69-9.02,2.95-2.37-1.54-2.85-5.87-4.38-8.86-1.2-2.35-1.12-3.81,1.7-4.76,2.71-.91,5.2-2.46,7.92-3.32,2.66-.84,2.98-2.19,1.69-4.33-1.11-1.84-.87-5.33-4.88-3.42-5.62,2.67-11.37,5.08-17.12,7.46-1.88.78-2.14,1.65-1.25,3.4,1.19,2.33,2.14,4.78,3.16,7.19,5.53,12.95,11.05,25.91,16.59,38.85.6,1.4.77,3.33,3.29,2.22,6.16-2.71,12.38-5.26,18.57-7.89.68-.29,1.45-.54,1.34-1.53Z"/><path class="cls-1" d="m275.82,697.71c.65.27,1.34.54,2.03.84,2.86,1.22,5.74,2.4,8.57,3.68,2.73,1.24,3.32-.85,3.86-2.57.52-1.65,2.58-3.71-.51-5.01-6.08-2.56-12.21-5.02-18.28-7.59-1.48-.63-2.18-.27-2.75,1.2-1.44,3.72-2.99,7.4-4.54,11.08-5.02,11.93-10.08,23.84-15.06,35.79-.46,1.1-2.13,2.44.48,3.48,6.25,2.49,12.39,5.23,18.58,7.86.91.39,1.62.79,2.49-.45,3.14-4.46,2.71-6.35-2.18-8.39-.34-.14-.7-.25-1.05-.39-8.14-3.24-8.19-3.27-4.63-11.32,1.09-2.47,1.19-6.39,3.52-7.02,2.14-.57,5.2,1.31,7.54,2.66,4.23,2.46,3.98-1.45,5.19-3.31,1.61-2.47.14-3.21-2-4.09-7.97-3.27-7.94-3.34-4.72-11.14.52-1.27,1.04-2.54,1.56-3.81.34-.84.74-1.61,1.9-1.5Z"/><path class="cls-1" d="m546.52,679.6c-1.73,1.06-4.21,2-5.81,3.75-1.03,1.13.83,2.84,1.53,4.23.78,1.56,1.65,3.08,2.47,4.62,6.75,12.65,13.53,25.29,20.2,37.99,1.05,2,1.96,2.36,3.95,1.23,5.11-2.87,10.28-5.64,15.52-8.25,2.21-1.1,2.47-2.14,1.22-4.23-2.84-4.73-1.36-4.91-6.69-2.2-1.44.74-2.84,1.56-4.27,2.33q-4.22,2.29-6.54-2.08c-6.19-11.67-12.37-23.35-18.59-35.01-.55-1.03-.81-2.48-2.99-2.39Z"/><path class="cls-1" d="m298.34,756.53c2.73-.38,2.03-2.84,2.84-4.31,1.34-2.45.4-3.55-2.15-4.11-2.43-.53-4.74-1.6-7.17-2.12-2.72-.57-3.3-1.64-2.38-4.39,4.33-13,8.44-26.08,12.63-39.12.34-1.05,1.24-2.36.32-3.14-1.84-1.55-4.3-1.98-6.62-2.22-2.11-.22-1.98,1.98-2.4,3.25-4.45,13.47-8.74,27-13.23,40.46-3,9-3.11,8.96,6.14,11.79.83.26,1.68.47,2.51.75,3.19,1.06,6.38,2.13,9.51,3.17Z"/><path class="cls-1" d="m243.04,112.72c6.7-.06,11.58-5.73,9.11-11.57-3.97-9.4-8.78-18.44-13.24-27.63-.46-.95-1.06-1.08-2.11-.77-3.53,1.05-3.99,1.98-2.36,5.28,3.86,7.83,7.73,15.65,11.54,23.5.69,1.43,1.58,3.05-.19,4.38-2.7,2.02-4.05.28-5.17-1.96-4.07-8.12-8.19-16.22-12.15-24.39-.93-1.92-1.98-1.94-3.51-1.04-1.4.83-3.56,1.11-2.24,3.7,4.55,8.87,8.42,18.08,13.56,26.65,1.54,2.57,3.79,3.85,6.77,3.84Z"/><path class="cls-1" d="m342.03,73.16c.06-1.25-.25-2.71-.45-4.19-.28-2.1-.42-3.6-3.32-3.03-2.5.49-3.56,1.28-2.48,3.84.23.55.12,1.24.29,1.84.6,2.14.61,4.13-2.01,4.77-2.73.67-3.38-1.29-3.79-3.42-.38-1.93-.95-3.83-1.29-5.77-.88-5.13-1.7-10.28-2.49-15.43-.25-1.65.24-3.17,2.05-3.43,1.83-.26,3.04.84,3.49,2.67.15.6.48,1.21.45,1.81-.21,3.78,2.33,2.42,4.21,2.31,2.85-.16,1.78-2.1,1.55-3.56-.17-1.1-.52-2.18-.89-3.24-1.57-4.41-4.94-6.33-9.73-5.58-4.95.77-7.9,3.75-7.54,8.56.65,8.67,2.67,17.14,4.84,25.53,1.15,4.43,5.16,6.47,9.25,5.64,5.78-1.16,7.86-3.57,7.86-9.32Z"/><path class="cls-1" d="m218.17,122.92c-.49-3.11-2.66-6.03-4.63-9.03-.4-.61-1.08-.35-1.69-.11-3.36,1.31-3.78,2.52-1.93,5.62.57.96,1.21,1.91,1.63,2.94.55,1.38.43,2.69-.98,3.61-1.43.93-2.69.46-3.69-.6-.85-.89-1.49-1.99-2.16-3.04-3.43-5.35-6.84-10.7-10.24-16.07-.95-1.51-1.3-3.09.47-4.25,1.67-1.1,3.1-.41,4.26.97.48.57.96,1.17,1.28,1.83,1.32,2.76,2.91,1.26,4.53.38,2.15-1.17,1.49-2.47.34-3.9-.55-.68-1.01-1.42-1.54-2.12-3.08-4.07-7.66-4.75-12.23-1.81-4.21,2.7-5.51,6.98-2.92,11.3,4.1,6.84,8.43,13.54,12.83,20.19,2.07,3.13,5.97,4.4,9.12,3.41,4.46-1.4,7.47-4.88,7.54-9.33Z"/><path class="cls-1" d="m575.63,107.31c.99-2.33,1.57-3.64,2.1-4.97,2.25-5.54,4.46-11.1,6.72-16.64,1.36-3.32-1.87-3.2-3.29-4.31-1.46-1.14-1.83.3-2.23,1.36-4.03,10.72-7.96,21.48-12.15,32.14-1.62,4.13,2.09,3.96,3.8,5.44,2.1,1.83,3.28.32,4.5-1.25,6.64-8.56,13.35-17.06,19.88-25.7.72-.95,3.7-2.09.72-3.97-1.95-1.23-3.54-2.52-5.43.51-2.56,4.11-5.61,7.94-8.65,11.72-1.47,1.83-2.56,4.16-5.97,5.63Z"/><path class="cls-1" d="m300.74,84.43c.02-3.88-1.19-6.95-3.65-9.48-2.23-2.3-5.11-3.5-7.93-4.82-3.08-1.44-6.1-2.99-6.97-6.75-.41-1.76.38-2.95,1.87-3.64,1.54-.71,2.63.13,3.39,1.44.31.53.49,1.13.75,1.7,1,2.2,2.46.87,3.69.39.97-.37,2.6-.11,2.1-2.23-1.3-5.46-6.51-8.4-11.75-6.64-7.81,2.62-8.02,9.99-3.53,15.93,2.57,3.4,6.52,4.88,10.2,6.7,3.02,1.49,5.48,3.5,5.63,7.26.05,1.35-.28,2.45-1.76,2.91-1.52.47-2.72.09-3.52-1.27-.44-.74-.68-1.6-1.11-2.36-1.12-1.99-2.56-.52-3.89-.33-1.31.19-1.97.69-1.76,2.21.59,4.27,5,8.11,9.13,7.82,5.47-.39,9.1-3.91,9.13-8.83Z"/><path class="cls-1" d="m463.34,73.56c.45-2.44,1.09-4.86,1.29-7.33.17-2.11,1.05-2.58,2.9-2.1,1.08.28,2.29.22,3.26.69,2.31,1.12,2.8-.43,3.31-2.03,1.1-3.46-1.62-3.72-3.68-3.86-3.45-.24-4.29-1.6-3.45-4.9,1.44-5.7,1.29-5.74,7.37-4.58.49.09,1.07-.06,1.48.15,2.47,1.29,2.97-.43,3.44-2.2.51-1.91-.15-3.12-2.17-3.45-4.04-.68-8.12-1.17-12.11-2.1-2.17-.5-2.35.72-2.6,2.07-2.06,11.11-4.06,22.23-6.13,33.33-.34,1.8-.08,2.69,2.03,3,3.67.53,7.29,1.45,10.93,2.22,1.69.36,3.25.63,3.66-1.78.37-2.17.3-3.86-2.51-4.1-1.73-.15-3.42-.64-5.15-.83-1.41-.16-2.07-.72-1.87-2.2Z"/><path class="cls-1" d="m415.09,49.45c-.24-.05-.48-.1-.72-.14-.91-3.6-1.9-7.18-2.72-10.8-.86-3.79-3.89-2.28-5.78-2.03-2.65.35-.63,2.48-.33,3.47,3.31,10.82,7.16,21.53,4.78,33.18-.45,2.19.74,2.79,2.77,2.67,1.89-.11,3.41.29,3.62-2.71.42-6.02-.33-12.19,2.02-18.04,2.36-5.85,4.48-11.79,6.73-17.75-6.01-.75-5.99-.75-7.72,4.51-.84,2.56-1.77,5.09-2.65,7.64Z"/><path class="cls-1" d="m552.84,75.46c-.36.88-.72,1.81-1.13,2.72-3.6,7.92-7.12,15.87-10.89,23.72-1.1,2.3-.61,3.24,1.58,4.21,2.09.93,3.25.97,4.28-1.44,3.44-8,7.25-15.85,10.62-23.89,1.16-2.77,2.16-4.33,5.2-2.36,1.62,1.05,2.8.98,3.62-1.22.73-1.97.84-3.09-1.45-4.01-4.04-1.62-7.95-3.55-11.9-5.4-1.48-.69-2.81-1.76-3.83.72-.86,2.1-1.32,3.69,1.48,4.58,1.03.33,2.59.53,2.42,2.37Z"/><path class="cls-1" d="m208.72,87.49c-2.06-.01-4.6,2.99-3.63,4.7,5.59,9.87,11.27,19.7,16.81,29.61,1.15,2.06,2.15,2.22,4.07.95,2.91-1.92,5.93-3.72,9.07-5.22,2.44-1.16,2.02-2.25,1.03-4.27-1.28-2.62-2.57-1.53-4.1-.62-1.06.64-2.2,1.18-3.19,1.91-2.09,1.54-3.18,1.16-4.47-1.25-4.3-8.02-8.91-15.88-13.46-23.77-.44-.77-.44-2.08-2.11-2.03Z"/><path class="cls-1" d="m385.36,75.75c1.87,0,3.74-.06,5.61.01,3.12.12,3.2-1.79,3.13-4.16-.08-2.95-1.95-1.82-3.4-1.73-1.24.07-2.5.09-3.73.27-1.99.29-2.98-.3-3.01-2.51-.04-2.98-.52-5.95-.54-8.93-.05-6.47-1.02-12.89-.69-19.38.2-3.89-2.88-1.97-4.57-2.3-2.15-.43-1.82.91-1.74,2.48.52,9.7.85,19.4,1.27,29.11.32,7.16.34,7.16,7.66,7.15Z"/><path class="cls-1" d="m575.84,79.69c-.43-1.97-2.38-1.97-3.65-2.78-1.7-1.08-2.17.55-2.68,1.56-5.2,10.18-10.3,20.41-15.55,30.56-1.58,3.07,1.33,2.75,2.5,3.73,1.98,1.66,2.7.17,3.49-1.4,4.96-9.88,9.97-19.73,14.95-29.6.33-.66.62-1.35.94-2.07Z"/><path class="cls-1" d="m352.59,77.11c-.62-4.03-1.27-8.05-1.86-12.08-1.1-7.48-2.12-14.96-3.31-22.43-.2-1.22-.44-3.63-2.58-2.31-1.2.74-4.49-1.25-3.64,2.88,1.32,6.43,1.86,13.01,2.79,19.52.7,4.91,1.57,9.8,2.23,14.71.28,2.14,1.45,2.55,3.08,1.81,1.21-.55,3.69.77,3.29-2.1Z"/><path class="cls-1" d="m649.12,298.82c.13,18.72-.53,37.44-2.68,56.03-3.74,32.36-11.56,63.79-23.18,94.23-7.16,18.76-15,37.28-24.92,54.75-11.82,20.83-24.86,40.9-40.55,59.12-17.22,19.99-35.85,38.67-55.89,55.71-26.57,22.6-55.44,41.93-87.45,56.33-14.31,6.44-11.92,7.63-28.94-.14-27.37-12.5-52.42-28.76-76.17-47.16-16.7-12.94-32.46-26.89-47.05-42.16-21.81-22.83-40.69-47.88-56.44-75.24-22.82-39.64-38.25-82.04-47.33-126.83-3.81-18.8-6.13-37.71-6.98-56.9-.8-18.25-.55-36.47.23-54.68.92-21.26,2.92-42.44,5.35-63.59,2.26-19.73,5.95-39.23,9.01-58.83.4-2.56,1.5-4.11,4.3-4.82,12.65-3.22,25.52-5.27,38.39-7.36,13.71-2.23,27.47-4.12,41.24-5.9,5.47-.71,10.22-3.78,15.15-6.19,31.59-15.44,64.86-25.1,99.79-29.33,18.01-2.18,36.03-3.13,54.08-1.85,30.31,2.14,59.8,8.31,88.3,19.04,10.98,4.13,21.74,8.72,31.99,14.44,8.76,4.89,18.59,5.09,28.15,6.41,19.04,2.64,38.16,4.73,56.95,8.96.24.05.47.18.72.22,6.09.8,8.83,4.11,10.07,10.35,3.62,18.28,5.79,36.73,8.04,55.19,1.74,14.32,3.33,28.66,4.28,43.05,1.03,15.69,1.64,31.41,1.54,47.14Zm-249.44-158.51c-33.81.96-65.86,1.16-97.82,4.33-15.84,1.57-31.69,3-47.49,4.98-22.8,2.86-45.42,6.78-67.94,11.27-2.77.55-4.23,1.99-4.71,4.93-1.78,10.89-4.01,21.71-5.65,32.62-4.02,26.84-7.13,53.81-7.84,80.96-.91,34.94,0,69.81,6.85,104.26,10.17,51.06,30.31,97.8,60.05,140.55,20.45,29.39,44.29,55.56,71.79,78.42,13.24,11.01,27.19,21.09,41.71,30.35,14.64,9.34,29.93,17.49,45.63,24.92,3.57,1.69,6.96,1.94,10.72.22,8.41-3.84,16.79-7.76,24.84-12.26,41.65-23.25,78.49-52.47,109.9-88.5,20.86-23.92,38.52-49.96,52.81-78.25,26.81-53.09,39.54-109.59,40.04-168.92.18-21.71-1.15-43.37-3-65.01-1.09-12.77-2.72-25.46-4.21-38.18-1.67-14.32-4.57-28.42-7.11-42.59-.34-1.88-.93-2.62-2.95-3.02-25.7-5.03-51.46-9.6-77.51-12.52-24.86-2.78-49.76-5.26-74.73-6.59-21.69-1.15-43.43-1.4-63.38-1.99Z"/><path class="cls-1" d="m655.86,319.06c.08-11.37.06-22.74-.77-34.07-1.22-16.75-2.72-33.47-5.31-50.08-.48-3.07-.62-6.19-.85-9.29-.05-.66-.33-1.67.66-1.84.46-.08,1.17.42,1.52.86,1.56,1.94,3.16,3.86,4.5,5.95,14.7,22.83,27.16,46.78,35.68,72.64,6.01,18.24,10.13,36.89,12.69,55.95,2.2,16.37,2.99,32.77,2.48,49.22-.83,26.98-5.1,53.44-12.81,79.34-11.49,38.6-29.57,73.83-55,105.05-30.34,37.25-67.37,66.11-111.19,86-15.12,6.86-30.94,11.58-47.49,13.6-7.2.88-14.44,1-21.68.75-1-.03-2.51.3-2.84-1.12-.27-1.18,1.11-1.6,1.85-2.11,9.76-6.71,19.66-13.23,29.37-20.01,24.98-17.46,47.01-38.21,67.5-60.68,23.82-26.12,41.78-56.09,58.04-87.26,19.63-37.63,30.98-77.77,37.38-119.52,2.28-14.89,3.73-29.84,4.96-44.85,1.06-12.84,1.13-25.67,1.3-38.52Z"/><path class="cls-1" d="m150.64,223.43c.56,6.52-1.05,12.77-1.8,19.11-1.42,12.11-2.6,24.24-3.35,36.42-.64,10.46-1.13,20.91-1.43,31.39-.33,11.38-.26,22.76.25,34.09,1.54,34.23,5.99,68.08,14.98,101.22,7.03,25.9,15.84,51.15,27.65,75.29,13.59,27.79,30.02,53.73,49.88,77.53,11.94,14.3,24.5,27.99,38.24,40.54,18.62,17.01,38.51,32.42,60.12,45.52,2.55,1.55,4.98,3.31,7.41,5.05.9.65,2.03,1.57,1.76,2.68-.35,1.39-1.9.85-2.92.89-16.58.62-32.76-1.77-48.51-6.87-33.12-10.71-62.27-28.37-88.58-50.96-7.66-6.58-15.66-12.75-22.65-20.1-26.45-27.81-48.01-58.84-63.05-94.32-10.01-23.6-17.26-47.97-21.24-73.24-3.48-22.07-5.11-44.35-3.24-66.68,3.73-44.51,14.67-87.01,36.35-126.39,5.95-10.81,12.57-21.21,20.14-31.18Z"/><path class="cls-1" d="m746.6,397.93c-.49,56.26-12.65,108.66-38.11,157.83-.8,1.55-1.4,3.23-2.36,4.67-1.39,2.1-3.53,2.92-5.89,1.96-2.36-.96-1.98-3.23-1.72-5.2.13-.95.63-1.9,1.11-2.76,15.22-27.39,24.87-56.76,31.17-87.35,5.65-27.45,8.09-55.2,6.91-83.15-2.18-51.55-15.02-100.28-39.93-145.67-7.39-13.47-15.64-26.39-24.46-38.96-1.07-1.52-2.2-2.99-2.71-4.87-.45-1.67-.15-2.99,1.08-4.05,1.38-1.2,2.97-1.21,4.52-.32,2,1.15,3.37,2.96,4.66,4.79,22.24,31.53,39.69,65.41,50.6,102.54,6.01,20.44,10.41,41.16,12.73,62.37,1.43,13.04,2.06,26.09,2.39,38.16Z"/><path class="cls-1" d="m441.49,740.53c5.05,1.77,5.73,6.11,6.36,10.07.86,5.37.68,10.9,2,16.23.08.34.18.98.07,1.03-2.3.99-4.77.99-7.2,1.1-1.86.09-2.16-1.43-2.33-2.81-.67-5.42-1.29-10.84-1.91-16.26-.17-1.45-.79-2.66-2.07-3.37-1.74-.96-3.77-1.04-5.41-.25-1.42.68-.59,2.54-.49,3.81.44,5.7.99,11.39,1.64,17.07.24,2.12-.54,2.92-2.59,3.13-6.4.63-6.23.66-6.84-6.03-1.3-14.09-2.8-28.16-4.21-42.24-.04-.37-.07-.75-.09-1.12-.36-5.85-.34-5.66,5.47-6.28,3.84-.41,7.66-.77,11.52-.61,3.86.15,6.57,2,8.34,5.36,3.52,6.71,2.61,16.45-2.25,21.19Zm-4.89-9.59c.11-2.25.06-4.48-.78-6.6-1.25-3.15-4.01-2.26-6.4-2.35-1.68-.06-1.9,1.18-1.56,2.26,1.07,3.37-.04,6.97,1.19,10.28.41,1.1-.78,3.04,1.47,3.21,2.02.16,4.07-.04,5.43-1.75,1.18-1.48.59-3.34.63-5.05Z"/><path class="cls-1" d="m566.29,674.18c0-5.06,3.87-10.02,9.5-12.2,4.95-1.91,10.26-.88,13.51,3.41,7.22,9.55,13.89,19.52,19.63,30.02,3.45,6.31,1.26,12.5-4.75,16.39-7.2,4.67-12.79,3.87-17.67-2.69-6.68-8.98-12.33-18.73-18.34-28.2-1.28-2.01-2.08-4.27-1.89-6.75Zm30.95,31.63c3.7-.1,5.68-3.6,3.57-6.96-5.69-9.07-11.56-18.02-17.48-26.94-1.66-2.49-4.25-2.72-6.59-1.09-2.2,1.53-2.15,3.82-.75,5.97,5.83,8.99,11.69,17.96,17.55,26.92.86,1.32,1.99,2.23,3.7,2.09Z"/><path class="cls-1" d="m220.48,718.07c.13-4.67,2.51-8.56,4.57-12.5,5.31-10.15,10.95-20.12,16.1-30.35,2.11-4.2,4.04-1.34,6.17-.57,2.59.94,3.34,2.13,1.79,4.96-6.3,11.46-12.27,23.1-18.45,34.63-1.46,2.72-2.13,5.14.97,7.09,2.49,1.57,4.91.5,6.84-3.12,6.14-11.56,12.25-23.13,18.3-34.74,1.01-1.94,1.91-3.75,4.21-1.6,1.65,1.55,6.26.96,3.55,5.79-6.4,11.41-12.27,23.1-18.48,34.62-5.45,10.11-16.21,10.99-23.45,2.03-1.46-1.81-2.22-3.88-2.11-6.25Z"/><path class="cls-1" d="m401.39,715.21c5.86,0,5.91,0,6.85,5.77,2.57,15.8,5.11,31.6,7.66,47.4.36,2.21-.39,3.08-2.78,3.12-5.83.1-5.71.2-6.57-5.66-.26-1.75.15-4.43-1.43-5.1-2.59-1.09-5.65-.53-8.49-.25-1.25.12-1.19,1.43-1.3,2.4-.22,1.85-.49,3.7-.6,5.56-.14,2.2-1.29,2.94-3.4,3.03-5.32.23-5.6.08-4.76-5.07,2.56-15.66,5.33-31.29,7.72-46.98.54-3.53,1.84-4.83,5.24-4.24.61.11,1.25.02,1.87.02Zm0,13.95c-.29,0-.58,0-.86-.01-.19.42-.48.82-.55,1.25-.98,6.46-1.93,12.92-2.9,19.38-.39,2.62,1.45,2.65,3.01,2.26,1.45-.36,4.55,1.78,4.06-2.13-.86-6.92-1.83-13.83-2.76-20.75Z"/><path class="cls-1" d="m337.14,712.19c-1.08,15.45-2.1,29.97-3.12,44.49-.05.75-.08,1.49-.09,2.24-.09,6.12-2.37,7.38-8.04,4.56-.91-.45-.91-1-.88-1.75.05-1.62.12-3.24.1-4.86-.02-1.63,1.91-3.81-.14-4.74-2.52-1.14-5.48-1.5-8.29-1.78-1.27-.13-1.25,1.64-1.69,2.62-.41.91-.69,1.87-1.03,2.81-1.47,4.12-4.54,5.21-8.37,3.03-1.62-.93-.86-2.05-.4-3.19,4.35-10.74,8.68-21.48,13.04-32.21,2.01-4.96,4.27-9.83,6.02-14.88.88-2.54,2.03-2.99,4.32-2.14,1.27.47,2.64.83,3.98.94,3.69.3,5.56,1.86,4.59,4.86Zm-8.75,8.24c-.28-.05-.57-.11-.85-.16-2.65,6.76-5.33,13.5-7.94,20.27-1.04,2.7,1.43,2.49,2.72,2.71,1.35.23,3.72,2.21,4.08-.79.88-7.32,1.35-14.68,1.99-22.02Z"/><path class="cls-1" d="m456.07,743.11c-.56-9.72-1.65-19.41-1.36-29.15.07-2.38.47-3.43,3.13-3.86,8.37-1.36,8.41-1.54,11.38,6.43,5.25,14.11,10.41,28.25,15.64,42.37.72,1.95.82,2.94-1.88,3.4-5.79.98-5.68,1.19-7.76-4.2-.64-1.67-.59-4.46-2.51-4.63-2.6-.23-5.33.74-7.97,1.31-.92.2-.72,1.18-.72,1.9,0,1.37.05,2.75.06,4.12.02,5.49,0,5.45-5.33,6.27-1.9.29-2.72-.18-2.7-2.27.09-7.23.03-14.46.03-21.69Zm7.05-20c-1.32,7.16.02,14.07.04,21.02,0,2.92,2.2,2.74,3.95,2.1,1.15-.43,4.14.72,3.23-2.16-2.22-7.05-4.79-13.98-7.22-20.96Z"/><path class="cls-1" d="m384.09,727.12c0,.77.06,1.28-.01,1.77-.25,1.63.92,4.12-1.15,4.66-2.17.56-4.77.27-6.97-.38-1.41-.42-.77-2.47-.51-3.72.35-1.73.81-3.37.22-5.13-.67-2.03-1.95-3.01-4.16-3-2.22,0-3.37.89-3.96,3.08-1.26,4.74-.95,9.63-1.64,14.42-.83,5.78-1.03,11.65-1.44,17.49-.19,2.75-.09,5.44,3.6,5.79,3.04.29,4.36-1.26,4.67-5.3.05-.62.11-1.24.19-1.86.75-6.63,1.29-6.97,7.73-5.39,1.11.27,1.47.79,1.35,1.8-.4,3.33-.51,6.73-1.3,9.97-1.68,6.92-7.65,10.21-15.44,8.86-6.67-1.16-10.84-7.3-10.06-14.86,1.05-10.25,2.1-20.51,3.19-30.76.74-6.97,4.54-10.76,11.51-11.53,6.39-.7,11.9,2.74,13.77,8.44.65,1.99.2,3.96.41,5.67Z"/><path class="cls-1" d="m559.13,735.37c.11,1-.66,1.25-1.34,1.53-6.19,2.63-12.42,5.18-18.57,7.89-2.52,1.11-2.69-.82-3.29-2.22-5.54-12.95-11.06-25.9-16.59-38.85-1.03-2.41-1.98-4.86-3.16-7.19-.89-1.75-.64-2.62,1.25-3.4,5.75-2.38,11.5-4.79,17.12-7.46,4.01-1.91,3.77,1.58,4.88,3.42,1.29,2.15.97,3.49-1.69,4.33-2.72.86-5.21,2.41-7.92,3.32-2.82.95-2.9,2.41-1.7,4.76,1.53,2.99,2.01,7.32,4.38,8.86,2.68,1.74,5.96-1.83,9.02-2.95,1.56-.57,2.31-.19,2.88,1.22,2.76,6.8,3.36,5.03-2.86,7.78-5.9,2.6-5.97,2.55-3.22,8.55,1.39,3.03,1.7,7.59,4.41,8.7,2.71,1.11,6.03-2.08,9.12-3.28,4.04-1.57,7.42.67,7.27,4.97Z"/><path class="cls-1" d="m275.82,697.71c-1.16-.11-1.56.66-1.9,1.5-.52,1.27-1.04,2.54-1.56,3.81-3.21,7.8-3.25,7.87,4.72,11.14,2.14.88,3.61,1.62,2,4.09-1.21,1.86-.96,5.77-5.19,3.31-2.33-1.35-5.4-3.23-7.54-2.66-2.33.63-2.43,4.55-3.52,7.02-3.56,8.05-3.51,8.07,4.63,11.32.35.14.71.24,1.05.39,4.9,2.04,5.32,3.93,2.18,8.39-.87,1.24-1.58.84-2.49.45-6.19-2.63-12.34-5.37-18.58-7.86-2.61-1.04-.94-2.38-.48-3.48,4.98-11.95,10.04-23.86,15.06-35.79,1.55-3.68,3.1-7.36,4.54-11.08.57-1.47,1.26-1.83,2.75-1.2,6.08,2.58,12.2,5.04,18.28,7.59,3.09,1.3,1.03,3.35.51,5.01-.54,1.73-1.13,3.81-3.86,2.57-2.83-1.29-5.71-2.46-8.57-3.68-.69-.29-1.38-.57-2.03-.84Z"/><path class="cls-1" d="m546.52,679.6c2.18-.09,2.44,1.36,2.99,2.39,6.22,11.66,12.4,23.34,18.59,35.01q2.31,4.36,6.54,2.08c1.43-.77,2.82-1.6,4.27-2.33,5.33-2.72,3.85-2.53,6.69,2.2,1.26,2.09.99,3.13-1.22,4.23-5.24,2.61-10.42,5.37-15.52,8.25-1.99,1.12-2.91.76-3.95-1.23-6.66-12.7-13.45-25.33-20.2-37.99-.82-1.54-1.69-3.06-2.47-4.62-.7-1.39-2.56-3.1-1.53-4.23,1.6-1.75,4.08-2.69,5.81-3.75Z"/><path class="cls-1" d="m298.34,756.53c-3.13-1.05-6.32-2.12-9.51-3.17-.83-.27-1.67-.49-2.51-.75-9.25-2.83-9.14-2.79-6.14-11.79,4.49-13.46,8.78-26.99,13.23-40.46.42-1.27.29-3.47,2.4-3.25,2.32.25,4.78.67,6.62,2.22.92.78.02,2.09-.32,3.14-4.19,13.05-8.3,26.12-12.63,39.12-.92,2.75-.34,3.81,2.38,4.39,2.43.51,4.75,1.58,7.17,2.12,2.55.56,3.48,1.66,2.15,4.11-.81,1.48-.11,3.93-2.84,4.31Z"/><path class="cls-1" d="m257.63,65.22c4.03.03,9.27,7.51,7.72,12.8-.54,1.85-.81,2.65,1.41,3.55,3.73,1.51,7.52,10.17,6.66,14.1-.54,2.45-1.83,4.36-4.1,5.48-1.11.55-2.28.98-3.43,1.46-7.45,3.12-7.4,3.1-10.44-4.27-3.55-8.63-7.13-17.25-10.86-25.8-.91-2.09-.72-3.13,1.5-3.89,3.49-1.2,6.58-3.6,11.54-3.44Zm4.81,20.52c-3.81.06-4.7,1.33-3.63,4.09.8,2.08,1.72,4.12,2.49,6.21.53,1.44,1.16,1.88,2.76,1.24,3.31-1.33,3.93-2.55,2.16-6.42-.96-2.1-1.29-5.03-3.77-5.12Zm-2.75-8.04c-.21-1.64-.82-3.28-1.73-4.78-1.24-2.05-2.94-1.83-4.87-.98-2.45,1.07-.7,2.45-.34,3.66.36,1.18.91,2.32,1.5,3.42.57,1.05.46,3.08,2.58,2.3,1.58-.58,2.87-1.54,2.86-3.61Z"/><path class="cls-1" d="m543.66,70.88c-.71,2.87-1.4,7.36-5.79,9.92-.62.36-1.56.7-1.17,1.63,2.09,5.01-.83,9.15-2.27,13.55-.23.71-.41,1.45-.75,2.11-.7,1.35.09,4.09-3.29,2.84-2.85-1.05-3.87-2.25-2.55-5.16,1.07-2.37,1.83-4.89,2.8-7.31.48-1.2.63-2.41.49-3.66-.19-1.68-1.58-2.17-2.85-2.61-1.69-.58-1.74,1.06-2.11,1.95-1.47,3.56-2.97,7.11-4.15,10.77-.75,2.35-1.99,2.08-3.64,1.32-1.48-.68-3.42-.7-2.32-3.49,4.16-10.53,8.15-21.13,12.05-31.76.83-2.27,1.8-2.49,3.81-1.54,2.36,1.12,4.93,1.79,7.28,2.93,2.82,1.38,4.95,3.42,4.47,8.5Zm-10.49,6.25c2-.04,2.53-2.03,3.07-3.72.6-1.86,2.3-3.89.13-5.77-1.76-1.53-3.49-2.04-4.41.96-.51,1.65-1.02,3.32-1.77,4.86-1.41,2.89.22,3.46,2.98,3.67Z"/><path class="cls-1" d="m434.59,74.31c1.39-11.35,2.69-22.06,4.02-32.77.29-2.38,1.01-3.9,4.05-2.9,2.07.68,4.44.4,6.64.77,5.23.9,8.19,5.49,7.35,10.7-.98,6.11-1.87,12.24-2.48,18.39-.74,7.47-4.61,10.75-11.97,9.69-1.47-.21-2.95-.41-4.42-.67-2.12-.38-4.62-.51-3.19-3.21Zm6.83-4.54c-.23,1.05-.19,2.03,2,2.5,3.67.81,4.06-1.65,4.47-3.92.62-3.42.89-6.9,1.31-10.35.38-3.08.88-6.16,1.09-9.26.15-2.12-.79-3.51-3.25-3.67-1.64-.1-2.59.15-2.81,1.98-.88,7.39-1.82,14.77-2.81,22.71Z"/><path class="cls-1" d="m307.16,47.62c3.78-.23,6.25,1.82,7.53,5.03,3.19,7.99,4.72,16.46,6.6,24.81.99,4.38-2.35,8.35-7.05,9.53-4.85,1.21-8.94-.56-10.67-5.13-1.36-3.58-2.15-7.38-3.16-11.09-1-3.7-2.03-7.39-2.92-11.12-1.66-6.96,2.45-12.04,9.66-12.03Zm7.9,29.59c-1.78-6.74-3.68-14.19-5.77-21.6-.4-1.43-1.56-2.74-3.39-2.18-1.78.54-2.46,1.84-2.16,3.78,1.17,7.51,3.72,14.66,5.55,22,.39,1.57,1.72,2.44,3.5,2.06,1.77-.38,2.39-1.62,2.27-4.06Z"/><path class="cls-1" d="m582.44,123.3c-.29-2.14.93-3.98,2.03-5.74,3.62-5.8,7.28-11.59,11.12-17.25,3.7-5.46,7.84-6.4,13.09-3.3,4.71,2.78,5.96,7.54,2.73,12.94-4.02,6.72-7.91,13.58-12.92,19.65-2.29,2.78-5.33,4-9,2.56-4.51-1.78-7.05-4.87-7.06-8.85Zm9.11,3.13c.94.08,1.78-.17,2.3-.96,4.28-6.54,8.59-13.06,12.76-19.68.84-1.34.61-3-.97-3.91-1.49-.87-3.04-.56-3.97.84-4.2,6.29-8.42,12.59-12.37,19.04-1.4,2.29-.05,4.56,2.26,4.68Z"/><path class="cls-1" d="m496.75,81.47c.25-2.53,1.82-6.22,2.95-10.01,1.29-4.28,2.84-8.49,4.31-12.71,1.74-4.98,5.18-6.9,10.13-5.69,5.75,1.41,8.76,4.99,7.55,10.14-1.94,8.21-4.42,16.3-7.69,24.09-1.86,4.44-5.44,5.88-10.14,4.72-4.78-1.18-7.19-4.23-7.12-10.54Zm6.16,1.56c-.22,1.93.88,2.9,2.46,3.3,2.04.51,2.94-.88,3.47-2.53,2.2-6.84,4.42-13.67,6.53-20.53.6-1.97.23-3.84-2.1-4.43-2.29-.58-3.4.79-4.02,2.84-1.87,6.17-3.81,12.31-5.69,18.48-.29.94-.44,1.92-.65,2.88Z"/><path class="cls-1" d="m355.18,71.36c.63-9.61,1.34-20.17,1.98-30.73.07-1.21.5-1.6,1.69-1.91,5.71-1.52,6.73-.99,8.23,4.54,2.72,10.07,5.5,20.12,8.12,30.21.21.8,1.91,2.76-.5,2.77-1.77,0-4.28,1.94-5.47-1.14-.31-.81-.61-1.67-.67-2.52-.23-3.35-2.49-3.03-4.84-2.94-2.85.11-2.96,1.84-2.95,4.05,0,1.33.88,2.99-.96,4-2.89,1.57-4.61.58-4.64-2.75,0-.87,0-1.75,0-3.57Zm7.4-23.19c-1.35,4.02-.99,7.98-1.04,11.91-.06,4.93-.01,4.93,4.79,3.42-1.25-5.11-2.5-10.22-3.75-15.33Z"/><path class="cls-1" d="m342.03,73.16c0,5.75-2.08,8.16-7.86,9.32-4.09.82-8.1-1.21-9.25-5.64-2.17-8.39-4.19-16.86-4.84-25.53-.36-4.81,2.59-7.79,7.54-8.56,4.79-.75,8.16,1.17,9.73,5.58.37,1.05.72,2.14.89,3.24.23,1.46,1.3,3.4-1.55,3.56-1.88.11-4.42,1.47-4.21-2.31.03-.59-.3-1.2-.45-1.81-.46-1.82-1.66-2.92-3.49-2.67-1.81.25-2.3,1.78-2.05,3.43.79,5.15,1.61,10.29,2.49,15.43.33,1.94.91,3.84,1.29,5.77.42,2.13,1.06,4.08,3.79,3.42,2.62-.64,2.61-2.62,2.01-4.77-.17-.59-.05-1.28-.29-1.84-1.08-2.56-.02-3.35,2.48-3.84,2.89-.57,3.04.93,3.32,3.03.2,1.48.51,2.94.45,4.19Z"/><path class="cls-1" d="m575.63,107.31c3.42-1.48,4.5-3.8,5.97-5.63,3.04-3.79,6.1-7.61,8.65-11.72,1.88-3.03,3.48-1.74,5.43-.51,2.98,1.88,0,3.01-.72,3.97-6.54,8.63-13.25,17.14-19.88,25.7-1.22,1.57-2.39,3.08-4.5,1.25-1.7-1.48-5.42-1.31-3.8-5.44,4.19-10.66,8.12-21.42,12.15-32.14.4-1.06.77-2.5,2.23-1.36,1.42,1.11,4.65.99,3.29,4.31-2.26,5.54-4.48,11.09-6.72,16.64-.54,1.33-1.12,2.64-2.1,4.97Z"/><path class="cls-1" d="m300.74,84.43c-.02,4.93-3.66,8.44-9.13,8.83-4.13.29-8.54-3.55-9.13-7.82-.21-1.52.45-2.03,1.76-2.21,1.33-.19,2.77-1.65,3.89.33.42.76.67,1.61,1.11,2.36.8,1.36,2,1.74,3.52,1.27,1.48-.46,1.82-1.56,1.76-2.91-.15-3.76-2.6-5.76-5.63-7.26-3.68-1.82-7.63-3.3-10.2-6.7-4.49-5.93-4.28-13.3,3.53-15.93,5.24-1.76,10.45,1.18,11.75,6.64.5,2.11-1.12,1.85-2.1,2.23-1.24.48-2.7,1.81-3.69-.39-.26-.56-.44-1.17-.75-1.7-.76-1.31-1.85-2.14-3.39-1.44-1.49.68-2.28,1.87-1.87,3.64.87,3.76,3.9,5.31,6.97,6.75,2.83,1.32,5.7,2.52,7.93,4.82,2.46,2.53,3.67,5.6,3.65,9.48Z"/><path class="cls-1" d="m463.34,73.56c-.2,1.48.46,2.05,1.87,2.2,1.73.19,3.42.68,5.15.83,2.81.24,2.88,1.93,2.51,4.1-.41,2.41-1.97,2.14-3.66,1.78-3.64-.77-7.25-1.69-10.93-2.22-2.11-.3-2.36-1.2-2.03-3,2.07-11.1,4.07-22.22,6.13-33.33.25-1.35.44-2.57,2.6-2.07,3.98.93,8.07,1.42,12.11,2.1,2.02.34,2.67,1.54,2.17,3.45-.47,1.77-.96,3.48-3.44,2.2-.41-.21-.99-.06-1.48-.15-6.08-1.16-5.93-1.13-7.37,4.58-.84,3.31,0,4.66,3.45,4.9,2.06.14,4.78.4,3.68,3.86-.51,1.6-.99,3.15-3.31,2.03-.97-.47-2.18-.41-3.26-.69-1.85-.48-2.73-.01-2.9,2.1-.2,2.46-.84,4.89-1.29,7.33Z"/><path class="cls-1" d="m499.86,56.68c-.08,3.41-.86,6.68-2.41,9.7-1.72,3.35-5.07,5.06-8.73,3.98-3.3-.97-4.46.17-4.99,3.23-.51,2.94-1.53,5.78-2.04,8.72-.52,2.93-2.29,2.16-4.17,1.86-1.98-.31-2.63-.79-2.02-3.1,2.84-10.83,5.52-21.7,7.99-32.61.61-2.72,1.68-2.88,3.86-2.09,1.99.72,4.07,1.2,6.1,1.8,5.24,1.55,6.42,3.12,6.42,8.5Zm-6.11.57c.29-3.17-1.27-3.75-3.07-4.29-2.35-.7-2.01,1.19-2.36,2.32-.62,2.02-1.2,4.05-1.61,6.12-.21,1.05-1.21,2.59.78,3.05,1.67.38,3.64.94,4.48-1.28.83-2.18,1.36-4.48,1.78-5.91Z"/><path class="cls-1" d="m415.09,49.45c.89-2.55,1.81-5.08,2.65-7.64,1.73-5.26,1.71-5.26,7.72-4.51-2.25,5.96-4.37,11.9-6.73,17.75-2.36,5.85-1.6,12.02-2.02,18.04-.21,3-1.73,2.6-3.62,2.71-2.03.12-3.22-.48-2.77-2.67,2.38-11.65-1.47-22.36-4.78-33.18-.3-.99-2.33-3.13.33-3.47,1.9-.25,4.93-1.76,5.78,2.03.82,3.62,1.81,7.2,2.72,10.8.24.05.48.1.72.14Z"/><path class="cls-1" d="m552.84,75.46c.18-1.84-1.39-2.05-2.42-2.37-2.81-.89-2.34-2.48-1.48-4.58,1.01-2.48,2.35-1.41,3.83-.72,3.95,1.85,7.86,3.78,11.9,5.4,2.29.92,2.18,2.04,1.45,4.01-.81,2.2-2,2.27-3.62,1.22-3.05-1.97-4.04-.41-5.2,2.36-3.37,8.03-7.17,15.88-10.62,23.89-1.04,2.41-2.2,2.37-4.28,1.44-2.19-.97-2.68-1.91-1.58-4.21,3.76-7.84,7.28-15.8,10.89-23.72.41-.91.77-1.84,1.13-2.72Z"/><path class="cls-1" d="m385.36,75.75c-7.32.01-7.34.02-7.66-7.15-.43-9.7-.76-19.41-1.27-29.11-.08-1.57-.42-2.91,1.74-2.48,1.69.34,4.77-1.58,4.57,2.3-.33,6.48.65,12.91.69,19.38.02,2.98.49,5.95.54,8.93.03,2.21,1.02,2.8,3.01,2.51,1.23-.18,2.48-.2,3.73-.27,1.45-.08,3.33-1.22,3.4,1.73.06,2.37-.02,4.28-3.13,4.16-1.87-.07-3.74-.01-5.61-.01Z"/><path class="cls-1" d="m575.84,79.69c-.32.72-.61,1.41-.94,2.07-4.98,9.87-9.99,19.72-14.95,29.6-.79,1.57-1.52,3.06-3.49,1.4-1.17-.98-4.09-.66-2.5-3.73,5.25-10.15,10.35-20.38,15.55-30.56.51-1.01.99-2.64,2.68-1.56,1.27.81,3.23.81,3.65,2.78Z"/><path class="cls-1" d="m352.59,77.11c.41,2.87-2.08,1.55-3.29,2.1-1.63.74-2.8.32-3.08-1.81-.66-4.92-1.53-9.8-2.23-14.71-.93-6.51-1.48-13.09-2.79-19.52-.85-4.13,2.44-2.14,3.64-2.88,2.15-1.32,2.39,1.09,2.58,2.31,1.2,7.46,2.21,14.95,3.31,22.43.59,4.03,1.24,8.05,1.86,12.08Z"/><path class="cls-2" d="m394.11,150.95c27.5.48,51.98.9,76.4,2.48,16.64,1.07,33.25,2.6,49.83,4.41,28.04,3.07,55.86,7.6,83.53,13.14,2.92.58,4.35,1.34,5.06,4.9,3.52,17.55,6.43,35.18,8.47,52.94,1.37,11.98,2.56,23.98,3.4,36.02,1.23,17.82,2.16,35.63,1.77,53.48-.71,32.22-4.82,63.92-13.7,95.03-13.3,46.61-35.05,88.75-65.23,126.56-13.02,16.31-27.33,31.38-42.98,45.28-24.48,21.73-50.92,40.51-80.02,55.51-5.32,2.74-10.8,5.18-16.17,7.85-4.49,2.23-8.66,1.26-12.91-.76-25.12-11.93-48.7-26.34-70.82-43.21-41.37-31.56-74.43-70.3-100.02-115.49-16.08-28.4-27.57-58.62-35.14-90.36-4.13-17.32-6.61-34.87-8.28-52.59-2.11-22.44-2.28-44.89-1.16-67.33.78-15.65,2.25-31.28,4.11-46.86,2.19-18.26,5.55-36.33,8.39-54.48.58-3.7,2.24-5.99,6.26-6.79,14.39-2.86,28.81-5.49,43.3-7.75,17.68-2.76,35.41-5.13,53.23-6.72,20.1-1.8,40.2-3.61,60.41-4,15.11-.29,30.21-.88,42.28-1.25Zm-174.14,147.05c.29,0,.57,0,.86,0,.54,29.48,1.09,58.96,1.6,88.44.09,4.97.02,5.03,5.13,4.97,33.85-.4,67.71-.79,101.56-1.33,3.37-.05,4.23.97,4.22,4.2-.03,10.37.12,20.73.43,31.1.82,27.47,1.09,54.95,1.54,82.42.02,1.31.71,3.08-.63,3.84-1.37.77-2.52-.74-3.54-1.53-13.44-10.26-25.88-21.62-36.38-34.9-5.62-7.11-11.28-14.4-13.01-23.72-1.26-6.79-1-13.68-.9-20.52.05-3.03-.71-4.06-3.9-3.97-13.24.38-26.48.5-39.72.68-3.75.05-7.5.08-11.25-.01-2.03-.05-2.69.67-2.96,2.77-1.48,11.68-.18,23.19,2.28,34.53,4.81,22.18,17.3,40.14,32.41,56.41,17.56,18.91,37.37,35.24,58.49,50.03,18.64,13.05,38.21,24.55,58.09,35.56,5.89,3.26,11.67,6.74,17.93,9.3,2.28.94,3.27.52,3.12-2.08-.22-3.74-.44-7.49-.48-11.23-.33-27.86-.87-55.71-1.37-83.56-.47-26.35-.94-52.71-1.43-79.06-.64-34.48-.8-68.97-1.16-103.45-.01-1.12-.1-2.25-.08-3.37.03-2.03-.84-2.88-2.96-2.75-5.24.3-10.48.62-15.73.64-29.74.14-59.48.15-89.21,1.07-2.72.08-3.61-1.03-3.56-3.45.09-4.25-.51-8.48-.59-12.71-.41-22.61-.92-45.22-.83-67.84.02-3.98,1.41-5.39,5.01-6.11,14.26-2.86,28.45-6.09,42.84-8.3,5.11-.78,5.13-.85,5.1,4.23-.1,17.74.54,35.47,1,53.2.08,3.12,1.56,4,4.16,3.83,16.71-1.12,33.47.48,50.19-.92,3.31-.28,3.92-1.57,3.87-4.41-.42-20.98-.79-41.97-1.12-62.95-.28-17.86-.49-35.73-.75-53.59-.03-2.12-.21-4.25-.22-6.37-.01-2.06-1.01-2.83-3.02-2.9-4.16-.16-8.24.51-12.25,1.29-27.2,5.34-54.37,10.87-81.55,16.29-22.42,4.47-44.84,8.93-67.29,13.23-3.42.66-4.98,1.82-4.64,5.57.5,5.47.64,10.98.65,16.47.06,26.99.03,53.97.03,80.96Zm247.73,212.05c-.67-2.39-1.04-4.67-1.03-7.06.04-10.87.15-21.75-.07-32.62-.56-27.47-1.42-54.94-1.89-82.41-.44-25.61.05-51.25-.92-76.84-.98-25.87-.43-51.72-.92-77.57-.04-2.11.63-2.59,2.6-2.25,15.8,2.69,31.59,5.44,47.43,7.87,2.98.46,3.38,1.76,3.31,4.16-.4,15.25.61,30.48.58,45.72,0,2.96,1.02,3.53,3.68,3.47,7.12-.16,14.25.07,21.37-.09,9.36-.21,18.71-.79,28.07-.92,3.99-.06,4.73-2.05,4.66-5.41-.25-12.86-.12-25.72-.55-38.59-.6-17.72.07-35.47-.79-53.21-.11-2.32-.47-3.69-3.07-4.1-3.79-.6-7.49-1.73-11.28-2.36-24.62-4.1-49.26-8.12-73.88-12.17-25.88-4.26-51.79-8.42-77.63-12.9-3.52-.61-3.81.2-3.81,3.27-.05,37.86.7,75.71,1.61,113.56.63,26.35.89,52.71,1.39,79.06.48,25.1.92,50.21,1.38,75.32.75,40.97,1.2,81.95,1.77,122.93.24,17.61.46,35.23.7,52.84.02,1.62.16,3.25.17,4.87.02,2.03.88,2.38,2.58,1.46,3.95-2.14,8-4.1,11.86-6.39,29.54-17.52,58.25-36.28,84.58-58.44,17.24-14.51,33.26-30.2,46.16-48.82,8.94-12.9,16.65-26.39,19.6-42.08,2.11-11.21,2.47-22.49,1.68-33.87-.22-3.17-1.14-3.98-4.15-3.93-16.99.32-33.98.51-50.97.63-2.47.02-3.37.94-3.33,3.28.07,4.23.16,8.44.63,12.68,1.05,9.57-2.83,17.79-7.84,25.57-9.9,15.38-22.93,27.94-36.43,40.04-2.13,1.91-3.86,4.67-7.21,5.29Z"/></g></svg>